<mxfile host="Electron" modified="2023-07-29T17:11:21.791Z" agent="Mozilla/5.0 (Windows NT 10.0; Win64; x64) AppleWebKit/537.36 (KHTML, like Gecko) draw.io/21.6.1 Chrome/112.0.5615.204 Electron/24.6.1 Safari/537.36" etag="eCEWapG_Aoyn06ZngAaZ" version="21.6.1" type="device">
  <diagram name="Страница 1" id="jS24wfrhrFqdPi5Hfsyi">
    <mxGraphModel dx="1310" dy="828" grid="1" gridSize="10" guides="1" tooltips="1" connect="1" arrows="1" fold="1" page="1" pageScale="1" pageWidth="827" pageHeight="1169" math="0" shadow="0">
      <root>
        <mxCell id="0" />
        <mxCell id="1" parent="0" />
        <mxCell id="qfEtWsAX8eREh4wjfrbH-17" style="edgeStyle=orthogonalEdgeStyle;rounded=0;orthogonalLoop=1;jettySize=auto;html=1;dashed=1;shadow=1;" edge="1" parent="1" source="qfEtWsAX8eREh4wjfrbH-4">
          <mxGeometry relative="1" as="geometry">
            <mxPoint x="52" y="300" as="targetPoint" />
          </mxGeometry>
        </mxCell>
        <mxCell id="qfEtWsAX8eREh4wjfrbH-20" value="commit" style="edgeLabel;html=1;align=center;verticalAlign=middle;resizable=0;points=[];" vertex="1" connectable="0" parent="qfEtWsAX8eREh4wjfrbH-17">
          <mxGeometry x="0.08" relative="1" as="geometry">
            <mxPoint as="offset" />
          </mxGeometry>
        </mxCell>
        <mxCell id="qfEtWsAX8eREh4wjfrbH-4" value="" style="shape=image;aspect=fixed;image=data:image/svg+xml,PHN2ZyB4bWxucz0iaHR0cDovL3d3dy53My5vcmcvMjAwMC9zdmciIHZpZXdCb3g9IjAgMCA0OCA0OCI+PGRlZnM+PGNsaXBQYXRoIGlkPSJnaXRfc3ZnX19hIj48cGF0aCBkPSJNMCAuMTEzaDkxLjg4N1Y5MkgwWm0wIDAiLz48L2NsaXBQYXRoPjwvZGVmcz48ZyBzdHJva2Utd2lkdGg9IjIuNTUyIiBjbGlwLXBhdGg9InVybCgjZ2l0X3N2Z19fYSkiIHRyYW5zZm9ybT0idHJhbnNsYXRlKDAgLS4wNTkpIHNjYWxlKC41MjIzOCkiPjxwYXRoIGZpbGw9IiNmMDNjMmUiIGQ9Ik05MC4xNTYgNDEuOTY1IDUwLjAzNiAxLjg0OGE1LjkxOCA1LjkxOCAwIDAgMC04LjM3MiAwbC04LjMyOCA4LjMzMiAxMC41NjYgMTAuNTY2YTcuMDMgNy4wMyAwIDAgMSA3LjIzIDEuNjg0IDcuMDM0IDcuMDM0IDAgMCAxIDEuNjY5IDcuMjc3bDEwLjE4NyAxMC4xODRhNy4wMjggNy4wMjggMCAwIDEgNy4yNzggMS42NzIgNy4wNCA3LjA0IDAgMCAxIDAgOS45NTcgNy4wNSA3LjA1IDAgMCAxLTkuOTY1IDAgNy4wNDQgNy4wNDQgMCAwIDEtMS41MjgtNy42NmwtOS41LTkuNDk3VjU5LjM2YTcuMDQgNy4wNCAwIDAgMSAxLjg2IDExLjI5IDcuMDQgNy4wNCAwIDAgMS05Ljk1NyAwIDcuMDQgNy4wNCAwIDAgMSAwLTkuOTU4IDcuMDYgNy4wNiAwIDAgMSAyLjMwNC0xLjUzOVYzMy45MjZhNy4wNDkgNy4wNDkgMCAwIDEtMy44Mi05LjIzNGwtMTAuNDE4LTEwLjQyTDEuNzMgNDEuNzc3YTUuOTI1IDUuOTI1IDAgMCAwIDAgOC4zNzFMNDEuODUyIDkwLjI3YTUuOTI1IDUuOTI1IDAgMCAwIDguMzcgMGwzOS45MzQtMzkuOTM0YTUuOTI1IDUuOTI1IDAgMCAwIDAtOC4zNzEiLz48L2c+PC9zdmc+;imageAspect=1;container=0;" vertex="1" parent="1">
          <mxGeometry x="150" y="340" width="64" height="64" as="geometry" />
        </mxCell>
        <mxCell id="qfEtWsAX8eREh4wjfrbH-37" style="edgeStyle=orthogonalEdgeStyle;rounded=1;orthogonalLoop=1;jettySize=auto;html=1;entryX=0;entryY=0.5;entryDx=0;entryDy=0;dashed=1;" edge="1" parent="1" source="qfEtWsAX8eREh4wjfrbH-11" target="qfEtWsAX8eREh4wjfrbH-7">
          <mxGeometry relative="1" as="geometry" />
        </mxCell>
        <mxCell id="qfEtWsAX8eREh4wjfrbH-43" value="Continuous deployment" style="edgeLabel;html=1;align=center;verticalAlign=middle;resizable=0;points=[];" vertex="1" connectable="0" parent="qfEtWsAX8eREh4wjfrbH-37">
          <mxGeometry x="-0.5" y="-4" relative="1" as="geometry">
            <mxPoint as="offset" />
          </mxGeometry>
        </mxCell>
        <mxCell id="qfEtWsAX8eREh4wjfrbH-11" value="AgroCD" style="shape=image;aspect=fixed;image=data:image/svg+xml,PHN2ZyB4bWxucz0iaHR0cDovL3d3dy53My5vcmcvMjAwMC9zdmciIHZpZXdCb3g9IjkuMjggLTguMjggNjQgNjQiIHdpZHRoPSI2NCIgaGVpZ2h0PSI2NCI+PGcgZmlsbD0iI2ZlZmVmZSI+PHBhdGggZD0iTTM3Ljc0NSA0My42MjNjLjAwNSAwIC4wMS4wMTcuMDEuMDVsLjAxNy43LjEwNS0uNTM0Yy0uMDI4LS4zMzYtLjI5Mi0uMTY1LS4xMzItLjIwNHpNNTIuMiAyNC43ODJjLS4wMDUuMDA1LS4wMTcuMDA1LS4wMjIuMDEuMDA1LjAwNS4wMTcuMDEuMDIyLjAxNy0uMDA1LS4wMDUgMC0uMDE3IDAtLjAyOHoiLz48cGF0aCBkPSJNNDMuMDk0IDEuNjU0eiIvPjwvZz48cGF0aCBkPSJNNTAuODM1IDQ4LjEwMmwuMTMyLTIuNDAyYy4yMi0xLjc0Ni4wMS0zLjUzLjQ2OC01LjI1Ni4yMjYtLjg5Mi0uNDk2LTEuOTQuNDMtMi43MjJsLS4yMy0uNzZjLS4yNi0uNDMtLjEyNy0uODQ4LjAyOC0xLjI2Ny0uMDE3LTEuNTMyIDAtMy4wNjMuMjc1LTQuNTc4bC4yNTMtNi4zMmMtLjAwNS0uMDA1LS4wMTctLjAxLS4wMjItLjAxNy00LjUgMi4wNjYtOC43NDMtLjgyNi05LjQ2NS00LjI5Ny0uNDc0LTIuMjgtLjIyLTQuNDM1IDEuNTYtNi4xNzYuMjk3LS4yOTIuNTUtLjYyOC44MjYtLjk0OC43MjctNC4zNi4yLTguMzYtMy41MDQtMTEuNDc2LjU1Ni0uMzIgMS4wNTgtLjEzOCAxLjUtLjIyLTQuNTYtMS4xNS0xMC4xIDEuOTc1LTExLjkzNiA2Ljc0Ny0uNTUgMS40MzItLjg0OCAyLjktLjc1NSA0LjQ0NiA0LjUzLTIuMSA4LjYuNDA4IDkuNzA3IDQuMjI2IDEuMTYyIDMuOTcyLTEuOTM0IDguMTc2LTYuMDUgOC4yMzYtMS4yLjAxNy0yLjM0LS4xODItMy40NzYtLjUxOGwuMjUzIDYuNTc4Yy4xNiAxLjQzOC4zMyAyLjg3LjI2IDQuMzJsLjAzMyAxLjAyNS0uMDMzLjY4M2MuMzM2IDEuMzc3LjQwOCAyLjc5My41MTIgNC4yMDRhLjc4Ljc4IDAgMCAxLS4wMjItLjExYy4wMDUuMDQuMDE3LjA3Mi4wMjIuMWwuMzQ3IDcuMTk1Yy4wNzIuOTkyLS4yODYgMS40ODctMS4yIDEuNzQtMS4wOC4zMDMtMi4xNDMuNjY3LTMuMjEyIDEuMDA4IDEuNDMyLjE5OCAyLjg0My4yMiA0LjI1My4xODcgMS41MjYtLjAzMyAyLjIyLS43IDIuMzctMi4yMjZsLjI2NC0yLjg5Mi4yOTctNS4yNDVoLjIxNXY0Ljk4NmwuMDg4IDIuMjdjLjIyIDMuNTIuMzI1IDMuNDk4LTMuMTg0IDQuMi0uMDgzLjAxNy0uMTU0LjA2Ni0uMjMuMWwuNjI4LjQyYy4wNjYuMDE3LjEyLjA0NC4xNTQuMTA1LjgzNy4wMDUgMS42OC4wNzcgMi41MDcgMCAxLjUwNC0uMTQzIDIuMjE1LS45NDggMi4zMjUtMi40NC4wNjYtLjk2LjE2NS0xLjkxNy4yNDgtMi44NzYtLjEzMi0xLjI3My4wNi0yLjUyMy4yOTctMy43NzRsLS4wMTctLjdjMC0uMDMzLS4wMS0uMDU1LS4wMS0uMDUtLjE2LjA0LjEwNS0uMTMyLjEzMi4yMDRsLjA4OC0uNDQ2djUuNzc0bC4wNSAyLjAyN2MuMDI4IDIuNDUyLS4xMjcgMi42NzItMi40NjMgMy4zNzItLjY0NS4xOTMtMS4zMTcuMy0xLjk1Ni41MjMtLjQ2My4xNi0xLjA1Mi4wNzItMS40ODcuNjE3IDEuOS0uMDcyIDMuNjguMTQzIDUuNDUtLjE0MyAxLjgzLS4yOTcgMi41NTYtMS4wMzYgMi45My0yLjgyLjI3NS0xLjMuNC0yLjY2Ljg5Mi00IC4wNzIuMTQzLjEyNy4yLjE0My4yODZsLjc1IDMuNzI0Yy4zNDIgMS43MzUgMS4wNDcgMi40NzQgMi44IDIuNzgyIDEuODI0LjMxNCAzLjY3LjEgNS41Ni4xNDMtLjI3LS40NjMtLjY5NC0uMzg2LTEuMDM2LS40ODUtMS4xNzMtLjM0Mi0yLjM3LS42MzQtMy41Mi0xLjAzLS44MzctLjI5Mi0xLjQzOC0uODI2LTEuNDI3LTEuODU3bC4wMS04LjQ2Mkg0NWwuMzU4IDUuM2MuMjE1IDQuMDg4LjcgNC41MzQgNC44MDQgNC4zMDguMjMtLjM4Ni44LS4wODMgMS4wMTQtLjQ5Ni0uOTg2LS4wMDUtMS44NDYtLjQ4LTIuNzUtLjc4Mi0uNTA3LS4xNy0uNzkzLS42MjgtLjc4Mi0xLjIuMDQ0LTIuODk4LS4wNjYtNS44MDcuMzI1LTguNjk0bC42MTIgNy4yNzhjLjA4OCAxLjEzNS42IDIuMDIyIDEuOCAyLjEgMS42LjEgMy4yMjMuMDI4IDQuODM3LjAyOC0uODU0LS40My0xLjczLS42ODMtMi42LS45Ni0xLjk3Mi0uNjM0LTEuOTYtLjY0LTEuNzgtMi42NDR6TTM4LjQyOCA2Ljc2N2ExLjQ4IDEuNDggMCAwIDEtMS40NjUgMS40NjVjLS44NjUuMDE3LTEuNTE1LS40OC0xLjUzMi0xLjYwMy4wOTQtLjgxNS41NS0xLjM3MiAxLjUyLTEuMzk0IDEuMDMtLjAxNyAxLjQ5My42NzggMS40NzYgMS41MzJ6bTYuNjIyIDI0LjA5N2MuMDA1IDIuMjMtMS43MDIgNC4xNzYtMy42NTMgNC4xNy0xLjg0LS4wMDUtMy43Mi0yLjE3Ni0zLjY1My00LjIyNmwtLjM0Mi0yLjA2NmMxLjMxNy44OTggMi40MjQgMS44MTggMy45MDYgMS44NSAxLjUxNS4wMjggMi43MDUtLjc1IDMuOTQ1LTEuNjU4LjI2NC43MjctLjQwMiAxLjI5NS0uMjA0IDEuOTI4eiIgZmlsbD0iI2ZlNzMzZSIvPjxwYXRoIGQ9Ik0zMS4wOTUgMzUuN2wtLjMyLS4xMjdjLTEuNS0uNjE3LTIuODE1LTEuNTY1LTQuMDI3LTIuNjE3LTQuMzc0LTMuNzgtNy4yNi04LjUxMi03Ljk2LTE0LjI1Mi0uNzkzLTYuNTIzLjY2Ny0xMi41NDUgNS4wMi0xNy43MTggMy45NzItNC43MTYgOS4wMzUtNy40NjUgMTUuMDgtOC4xIDYuNzE2LS43IDEyLjc0OCAxLjE4IDE3LjgyOCA1LjgxOCA0LjIzNyAzLjg2NyA2LjcgOC42NiA3LjM0NCAxNC4yOTYuNTQgNC44LS4zMjUgOS40MzctMi43OTMgMTMuNjUyLTIuMjQyIDMuODMtNS4yMjggNi45MzYtOS4yNjcgOC45MDNsLS4zMy4xNmMtLjE1NC40Mi0uMjkyLjgzNy0uMDI4IDEuMjY3LjA5NC0uMDgzLjE3Ni0uMTg3LjI4Ni0uMjQ4IDYuMS0zLjIyOCAxMC4zMy04LjAyNyAxMi4zMDgtMTQuNzA0LjE3LS41NjcuNDM1LS44NDggMS4wNy0uNzgyLjg2LjA4OCAxLjEtLjQ4NSAxLjEtMS4ybC4wMDUtOC4yNDJjMC0uNi0uMTQzLTEuMjQtLjc1NS0xLjMwNi0xLjEyNC0uMTMyLTEuMjYyLS45NTMtMS40ODctMS43NTJDNjIuODM0IDQuMSA2MC4zLjIyMiA1Ni41LTIuNzQ4Yy03Ljc2OC02LjEtMTYuMjk2LTcuMi0yNS4yNDMtMy4wOEMyNC42MTYtMi43NyAyMC4zOCAyLjUzNiAxOC40NjMgOS42MzdjLS4xMi40NC0uMDY2Ljk2NC0uODE1LjgtMS4wNy0uMjItMS40Ny40MDgtMS40NzYgMS4zNTVsLS4wMDUgOC4yNDJjMCAuOTE1LjQ2MyAxLjQgMS4zNDQgMS4xODQuOC0uMTk4IDEuMDAzLjIwNCAxLjE2OC44Mi43MTYgMi42MzMgMS45MTIgNS4wNCAzLjUzIDcuMjQgMi4zNyAzLjIxMiA1LjI1NiA1LjggOC45MjUgNy40MzJsLS4wNC0xLjAzeiIgZmlsbD0iI2I1ZDJmMyIvPjxwYXRoIGQ9Ik0zMS4xIDM3LjM5OGMtLjgxNSAyLjI4Ni0yLjk4NiAyLjIzLTQuODMyIDIuODA0IDEuMzg4LjM1OCAyLjguNzcgNC4xODcuNTM0LjgyNi0uMTQzLjk4Ni4xNTQgMS4xMDcuNjQ1bC4wMjguMTE2LjAyMi4xYy0uMTA1LTEuNDE2LS4xNzYtMi44MjYtLjUxMi00LjJ6IiBmaWxsPSIjZmU2ODRiIi8+PHBhdGggZD0iTTUxLjQzNSA0MC40NWMxLjc2My44IDMuNDI3LS4wMDUgNS4xMy0uMjM3LTEuNjY0LS43MDUtMy44MTgtLjM0Mi00LjY5NC0yLjQ4NS0uOTMuNzgyLS4yIDEuODMtLjQzNSAyLjcyMnoiIGZpbGw9IiNmZTY0NDYiLz48cGF0aCBkPSJNMzcuOTY1IDQzLjM4bC0uMDg4LjQ0Ni0uMTA1LjUzNGMtLjIzNyAxLjI1LS40MyAyLjUtLjI5NyAzLjc3NC40MTMuMjE1LjEuNzgyLjUgMS4wMTRWNDMuMzh6IiBmaWxsPSIjZmVkNmM4Ii8+PHBhdGggZD0iTTM0LjczIDQxLjM2NWwtLjI5NyA1LjI0NS41MTItLjI2di00Ljk4NmgtLjIxNXoiIGZpbGw9IiNmZWViZTMiLz48cGF0aCBkPSJNMjkuNTUzIDUzLjQ1MmgyLjg0M2wtLjE1NC0uMTA1LS42MjgtLjQyYy0uNjIzLS4wMzMtMS4yMDcuMTA1LTIuMDYuNTIzeiIgZmlsbD0iI2ZlOTE2NiIvPjxwYXRoIGQ9Ik01MC4xNjggNTMuNDUyaDIuNzY2Yy0uNTYyLS4zMjUtMS4xMTMtLjYtMS43NTItLjQ5Ni0uMjE1LjQyLS43ODguMS0xLjAxNC40OTZ6IiBmaWxsPSIjZmU4ZjY0Ii8+PHBhdGggZD0iTTUyLjAwMyAzNS41NGM0LjAzOC0xLjk2IDcuMDItNS4wNjggOS4yNjctOC45MDMgMi40NjgtNC4yMTUgMy4zMzMtOC44NTMgMi43OTMtMTMuNjUyQzYzLjQzIDcuMzQ1IDYwLjk2IDIuNTUyIDU2LjcyLTEuMyA1MS42NC01Ljk0MyA0NS42MDctNy44MjcgMzguOS03LjEyMmMtNi4wMzguNjI4LTExLjEwNyAzLjM4My0xNS4wOCA4LjFDMTkuNDU0IDYuMTUgMTggMTIuMTcgMTguNzkzIDE4LjY5NGMuNyA1Ljc0NiAzLjU4NyAxMC40NzMgNy45NiAxNC4yNTIgMS4yMTggMS4wNTIgMi41MjMgMi4wMDUgNC4wMjcgMi42MTcuMTA1LjA0NC4yLjA4OC4zMi4xMjcuMDcyLTEuNDUtLjEtMi44OC0uMjYtNC4zMmwtLjMzLS4yMzdjLTEuMTE4LS44LTIuMDc3LTEuODA3LTMuMDQtMi43ODgtLjI5Mi0uMjk3LS42NTYtLjU1LS42NTYtMS4wMzYtLjY1LjQ2OC0xLjExOC4xNDMtMS41LS4zNzUtMi4xMTYtMi44ODctMy4zOTQtNi4wODgtMy41NjQtOS43LS4xNTQtMy4xODQuMTMyLTYuMjggMS40Ny05LjI2IDEuNzAyLTMuNzg1IDQuMzItNi42NzcgNy44MzQtOC44MjYuNTk1LS4zNjQuOTM3LS4wNCAxLjM1LjIzLjQwMi0uMDQuNzYtLjE3NiAxLjAyLS41MDdsLS4wNS0uMTE2Yy0uMzUzLS43NDQtLjM3LTEuNTg3LjQ4LTEuNzg1Ljg1NC0uMjA0IDEuMzQuNSAxLjM0NCAxLjM4OEM0MS41NzItMy43MjYgNDcuNS0yLjg3NyA1Mi44NSAxLjIwNWM0IDMuMDUyIDYuMjkyIDcuMTQ1IDcgMTIuMTM3LjkwNCA2LjQxOC0xLjI2NyAxMS43NC01Ljc0IDE2LjI0LS41My41My0xLjEyNCAxLjAwOC0xLjc5NiAxLjM2NmExMC4wOSAxMC4wOSAwIDAgMS0uMzQ3LjE3MWMtLjI3NSAxLjUxNS0uMjkyIDMuMDQ3LS4yNzUgNC41NzhsLjMyLS4xNnoiIGZpbGw9IiNlMmY1ZmMiLz48cGF0aCBkPSJNNTQuMSAyOS42YzQuNDY4LTQuNSA2LjY0LTkuODIzIDUuNzQtMTYuMjQtLjctNC45OTctMi45OTItOS4xLTctMTIuMTM3QzQ3LjUtMi44NyA0MS41NTctMy43MTIgMzUuMi0xLjYyNGMtLjAxLjAwNS0uMDIyLjAxNy0uMDMzLjAyMi0uNS4zMi0uODkyIDEuMDA4LTEuNjE0LjU3OC0uMDQ0LS4wMjgtLjA4My0uMDUtLjEyNy0uMDgzLS4yNi4zMy0uNjEyLjQ2OC0xLjAyLjUwNy0uMDE3LjA2Ni0uMDQuMTI3LS4wNi4xOTMtLjQ1NyAxLjI4NC0xLjgzIDEuNjItMi43NSAyLjQtMi40OTYgMi4wODgtNC4zNDcgNC42LTUuNDM4IDcuNjItMS43NTIgNC44OC0xLjM5NCA5LjY2My45NTMgMTQuMjguMzguNzUuODQ4IDEuNDYgMS4zNSAyLjEzOGExLjggMS44IDAgMCAxIC4zNTMgMS4yODRjMCAuNDk2LjM2NC43NTUuNjU2IDEuMDUyLjk3Ljk4IDEuOTIzIDEuOTc4IDMuMDQgMi43ODhsLjMzLjIzNy0uMjUzLTYuNTc4Yy0xLjkxNy0xLjI1Ni0zLjMxNy0yLjg1NC0zLjU2LTUuMjM0LS4zMDMtMi45MzYuOTMtNS4xMDcgMy4zMzMtNi42ODguMDEtLjAwNS4wMjItLjAxNy4wMzMtLjAyMi0uMDk0LTEuNTQzLjIwNC0zLjAyLjc1NS00LjQ0NkMzMi45NzQgMy42NSAzOC41MTYuNTIgNDMuMDgzIDEuNjY1YzMuMDQ3LjQ5NiA1LjUzNyAxLjg4IDcuMzIyIDQuNDE4IDEuNDI3IDIuMDMzIDIuMTY1IDQuMjc1IDIgNi43NzYgMS43MiAxLjMwNiAzLjEwNyAyLjgzNyAzLjMzMyA1LjEwMi4zMDMgMy4wNDctLjk5NyA1LjI3Mi0zLjU2IDYuODI2di4wMjhsLS4yNTMgNi4zMmMuMTItLjA1NS4yMzctLjEuMzQ3LS4xNy42ODMtLjM1OCAxLjI3OC0uODM3IDEuODA3LTEuMzcyeiIgZmlsbD0iI2NkZWNmNiIvPjxwYXRoIGQ9Ik00Ni42NyAxMi42MTJjMS45LS45MyAzLjcyNC0uNDMgNS41NDguMTdsLjIwNC4wNjZjLjE1NC0yLjUwNy0uNTg0LTQuNzUtMi02Ljc3Ni0xLjc4NS0yLjU0LTQuMjc1LTMuOTIzLTcuMzA1LTQuNDEzLS40NjguMDg4LS45Ny0uMS0xLjUyNi4yMiAzLjcyNCAzLjExOCA0LjIzNyA3LjExOCAzLjUwNCAxMS40NzZsMS41ODctLjc0NHoiIGZpbGw9IiNmZTZiM2MiLz48cGF0aCBkPSJNNTUuNzYgMTcuOTU2Yy0uMjI2LTIuMjY0LTEuNjE0LTMuNzk2LTMuMzMzLTUuMTAybC0uMjA0LS4wNjZjLTEuODMtLjYtMy42NTgtMS4xMDItNS41NDgtLjE3bC0xLjI0LjYtLjM0Mi4xNi0uODI2Ljk0OGMtMS43ODUgMS43NC0yLjAzMyAzLjg5NS0xLjU2IDYuMTc2LjcyMiAzLjQ3NiA0Ljk2NCA2LjM3IDkuNDcgNC4zMDguMDA1LS4wMDUuMDE3LS4wMDUuMDIyLS4wMSAyLjU2Mi0xLjU2IDMuODY3LTMuOCAzLjU2LTYuODN6bS02LjczOCA2LjA4OGMtMi45MjUtLjAyMi01LjIwNi0yLjM0Ny01LjE4LTUuMjgzLjAyOC0yLjg5MiAyLjQtNS4xODQgNS4zMDUtNS4xNjIgMi45My4wMjIgNS4xNzMgMi4zMyA1LjE1IDUuMjk0LS4wMjIgMi45NDItMi4zMTQgNS4xOC01LjI3OCA1LjE1eiIgZmlsbD0iI2ZlNjE0MiIvPjxwYXRoIGQ9Ik0zMC4zNTcgMTIuODdjLTIuNDAyIDEuNTgtMy42MzYgMy43NTItMy4zMzMgNi42ODguMjQyIDIuMzggMS42NDIgMy45NzggMy41NDggNS4yMjggMS4xNDYuMzQyIDIuMjguNTQgMy40ODcuNTIzIDQuMS0uMDYgNy4yMTItNC4yNiA2LjA1LTguMjM2LTEuMS0zLjgxNi01LjE4NS02LjMyMy05LjctNC4yMjMtLjAyMi4wMDUtLjAzMy4wMTctLjA0NC4wMjJ6bTMuMjg0IDExLjE3M2MtMy4wMDMuMDEtNS4zMjctMi4yOTItNS4zMTYtNS4yNzguMDA1LTIuOTMgMi4yOTItNS4yIDUuMjQtNS4yMTcgMi45OC0uMDE3IDUuMzYgMi4zMyA1LjM1IDUuMjYtLjAxIDIuODgtMi4zNzQgNS4yMjMtNS4yNzIgNS4yMzR6IiBmaWxsPSIjZmU2MTQzIi8+PHBhdGggZD0iTTM4LjQ0IDMxLjI5NGMtLjIwNC0uMjA0LS4zNTMtLjQ4LS42OTQtLjQ4NS0uMDY2IDIuMDUgMS44MDcgNC4yMiAzLjY1MyA0LjIyNiAxLjk1Ni4wMDUgMy42NTgtMS45NCAzLjY1My00LjE3LS43MzguMzgtMS4yMDcgMS4xNjItMi4wNTUgMS4zOTQtMS43LjQ2My0zLjI0NS4zNDctNC41NTYtLjk2NHoiIGZpbGw9IiMwNzA5MDkiLz48cGF0aCBkPSJNNDUuMjU0IDI4LjkzNmMtMS4yNC45LTIuNDI0IDEuNjg2LTMuOTQ1IDEuNjU4LTEuNDg3LS4wMjgtMi42LS45NTMtMy45MDYtMS44NWwuMzQyIDIuMDY2Yy4zNDIuMDEuNS4yOC42OTQuNDg1IDEuMzA2IDEuMyAyLjg2NSAxLjQyNyA0LjU1Ni45NjQuODQ4LS4yMyAxLjMxNy0xLjAwOCAyLjA1NS0xLjM5NC0uMTk4LS42MzQuNDY4LTEuMi4yMDQtMS45Mjh6IiBmaWxsPSIjZmRmY2ZiIi8+PHBhdGggZD0iTTM2Ljk1MiA1LjI0Yy0uOTc1LjAxNy0xLjQzMi41NzMtMS41MiAxLjM5NC4wMTcgMS4xMjQuNjY3IDEuNjE0IDEuNTMyIDEuNjAzYTEuNDggMS40OCAwIDAgMCAxLjQ2NS0xLjQ2NWMuMDE3LS44Ni0uNDQ2LTEuNTU0LTEuNDc2LTEuNTMyeiIgZmlsbD0iI2ZlYTc3NyIvPjxwYXRoIGQ9Ik0yNi44MDQgMjcuM2ExLjggMS44IDAgMCAwLS4zNTMtMS4yODRjLS40OTYtLjY3OC0uOTctMS4zODgtMS4zNS0yLjEzOC0yLjM0Ny00LjYxNy0yLjctOS40LS45NTMtMTQuMjggMS4xLTMuMDMgMi45NDItNS41MyA1LjQzOC03LjYyLjkyLS43NyAyLjI5Mi0xLjEwMiAyLjc1LTIuNC4wMjItLjA2LjA0NC0uMTI3LjA2LS4xOTMtLjQxMy0uMjctLjc1NS0uNTk1LTEuMzUtLjIzLTMuNTE1IDIuMTUtNi4xMzIgNS4wNC03LjgzNCA4LjgyNi0xLjM0IDIuOTgtMS42MjUgNi4wNzctMS40NyA5LjI2LjE3NiAzLjU5OCAxLjQ1IDYuODA0IDMuNTY0IDkuNy4zOC41MTguODU0Ljg0MyAxLjUuMzc1eiIgZmlsbD0iI2ZkZmVmZSIvPjxwYXRoIGQ9Ik0zNS4xNS0xLjYwMmMuMDEtLjAwNS4wMjItLjAxNy4wMzMtLjAyMi0uMDEtLjg5OC0uNS0xLjU5Mi0xLjM0NC0xLjM4OHMtLjgzMiAxLjA0Ny0uNDggMS43ODVsLjA1LjExNmExLjM2IDEuMzYgMCAwIDAgLjEyNy4wODNjLjcyMi40MzUgMS4xMTMtLjI2IDEuNjE0LS41NzN6IiBmaWxsPSIjZmJmZGZlIi8+PHBhdGggZD0iTTU0LjMgMTguODk4Yy4wMjItMi45NTgtMi4yMi01LjI2Ny01LjE1LTUuMjk0LTIuOTItLjAyMi01LjI3OCAyLjI3LTUuMzA1IDUuMTYyYTUuMTggNS4xOCAwIDAgMCA1LjE3OSA1LjI4M2MyLjk2NC4wMjIgNS4yNTYtMi4yMTUgNS4yNzgtNS4xNXptLTUuMDIuNTczYy0uOTkyLjAxNy0xLjU3LS41NDUtMS42NTgtMS41Mi0uMDgzLS45LjczMy0xLjc1NyAxLjYzNi0xLjY5Ny45Ny4wNzIgMS41MTUuNjQgMS42MyAxLjY1My0uMTMyLjkwNC0uNTk1IDEuNTQ4LTEuNiAxLjU2NXptLTE1LjcxNy01LjkxN2MtMi45NDcuMDE3LTUuMjI4IDIuMjg2LTUuMjQgNS4yMTctLjAwNSAyLjk4NiAyLjMxNCA1LjMgNS4zMTYgNS4yNzggMi44OTgtLjAxIDUuMjYtMi4zNTIgNS4yNzItNS4yMjguMDA1LTIuOTM2LTIuMzc0LTUuMjgzLTUuMzUtNS4yNjd6bS4wMDUgNS45MTdjLS45OC4wMS0xLjU3LS41NS0xLjY0Ny0xLjUzNy0uMDcyLS45Ljc1LTEuNzUyIDEuNjU4LTEuNjc1Ljk2LjA4MyAxLjUyLjY0IDEuNiAxLjY1My0uMTIuOTMtLjYyOCAxLjU0OC0xLjYyIDEuNTZ6IiBmaWxsPSIjZmVmZWZlIi8+PHBhdGggZD0iTTQ5LjI2IDE2LjI1NGMtLjkwNC0uMDY2LTEuNzIuNzgyLTEuNjM2IDEuNjk3LjA4OC45OC42NjcgMS41MzcgMS42NTggMS41MiAxLjAwOC0uMDE3IDEuNDc2LS42NiAxLjYtMS41NjUtLjExNi0xLjAxNC0uNjYtMS41OC0xLjYzLTEuNjUzeiIgZmlsbD0iIzA5MGIwYiIvPjxwYXRoIGQ9Ik0zMy41OCAxNi4yNmMtLjktLjA3Ny0xLjczLjc2Ni0xLjY1OCAxLjY3NS4wNzcuOTg2LjY2NyAxLjU0OCAxLjY0NyAxLjUzNy45OTItLjAxIDEuNS0uNjI4IDEuNjItMS41Ni0uMDk0LTEuMDItLjY1Ni0xLjU3Ni0xLjYtMS42NTN6IiBmaWxsPSIjMDkwYzBjIi8+PC9zdmc+;labelPosition=center;verticalLabelPosition=bottom;align=center;verticalAlign=top;" vertex="1" parent="1">
          <mxGeometry x="540" y="170" width="64" height="64" as="geometry" />
        </mxCell>
        <mxCell id="qfEtWsAX8eREh4wjfrbH-16" value="" style="shape=image;aspect=fixed;image=data:image/svg+xml,PD94bWwgdmVyc2lvbj0iMS4wIiBlbmNvZGluZz0iVVRGLTgiPz4KPCEtLSBVcGxvYWRlZCB0bzogU1ZHIFJlcG8sIHd3dy5zdmdyZXBvLmNvbSwgR2VuZXJhdG9yOiBTVkcgUmVwbyBNaXhlciBUb29scyAtLT4KPHN2ZyB3aWR0aD0iODAwcHgiIGhlaWdodD0iODAwcHgiIHZpZXdCb3g9IjAgLTE5My41IDUxMiA1MTIiIHZlcnNpb249IjEuMSIgeG1sbnM9Imh0dHA6Ly93d3cudzMub3JnLzIwMDAvc3ZnIiB4bWxuczp4bGluaz0iaHR0cDovL3d3dy53My5vcmcvMTk5OS94bGluayIgcHJlc2VydmVBc3BlY3RSYXRpbz0ieE1pZFlNaWQiPgoJCTxnPgoJCQkJPHBhdGggZD0iTTI2OS4wMDEzNyw5OS4zMTI1MzI2IEMyNjAuNjA0MjkxLDEwNS4wMTg0NTkgMjQ5LjEzNzA4MywxMDIuODI5NzY4IDI0My40MjY4OTksOTQuNDMyNjg4NCBDMjM3LjcxNjcxNCw4Ni4wMzU2MDkyIDIzOS45MDk2NjQsNzQuNTY0MTQyOSAyNDguMzA2NzQzLDY4Ljg0NTQ0MjQgQzI1Ni42OTk1NjQsNjMuMTM5NTE2MyAyNjguMTcxMDMsNjUuMzMyNDY1NSAyNzMuODgxMjE0LDczLjcyOTU0NDggQzI3OS41OTU2NTcsODIuMTIyMzY1OCAyNzcuNDA2OTY2LDkzLjU5ODA5MDMgMjY5LjAwMTM3LDk5LjMxMjUzMjYgTTI4MC4zOTYxOSw2OS4zMDEwNjQ4IEMyNzIuMjQxODI1LDU3LjI4NDU1NDkgMjU1Ljg4MTk5OCw1NC4xNzYxMDI2IDI0My44NzgyNjMsNjIuMzM4OTgzNCBDMjMxLjg2NjAxMSw3MC41MDE4NjQyIDIyOC43NDkwNDMsODYuODU3NDMyOCAyMzYuOTE2MTgyLDk4Ljg2MTE2ODMgQzI0NC4xMzgwMSwxMDkuNDk4MDM2IDI1Ny43NzY4NzcsMTEzLjE0MzAxNiAyNjkuMTM3NjMxLDEwOC4xOTA3ODMgTDI3OS4zMTAzNjEsMTI0LjcxMjQyIEwyODcuMzgzODIsMTE5LjIyNzkxOCBMMjc3LjIxNTM0OSwxMDIuNzA2MjgxIEMyODYuMDA0MTc4LDkzLjk2NDI5MTUgMjg3LjYzMDc5Myw3OS45MjUxNTg1IDI4MC4zOTYxOSw2OS4zMDEwNjQ4IE0wLDEwNi4xMjczMjUgQzMuNzgxMjQwNTUsMTA4LjE3MTIzOCA5LjYwNjM5NDkxLDEwOS43MDQxNzQgMTYuMTQ2OTE5MSwxMDkuNzA0MTc0IEMzMC40NTQzMTU4LDEwOS43MDQxNzQgMzcuNzEwMjA5OCwxMDIuODU3MDYyIDM3LjcxMDIwOTgsOTMuNDU1MDU4OSBDMzcuNjA4MDE0MSw4Ni4xOTkxNjQ5IDMzLjcyNDU3NzksODEuMzk1OTY3NCAyNC4yMjAzNzg3LDc4LjEyNTcwNTMgQzE4LjA4ODYzNzIsNzYuMDgxNzkxNSAxNi4xNDY5MTkxLDc0Ljc1MzI0NzUgMTYuMTQ2OTE5MSw3Mi40MDI3NDY2IEMxNi4xNDY5MTkxLDY5Ljk1MDA1MDEgMTguMjkzMDI4Niw2OC40MTcxMTQ3IDIyLjA3NDI2OTIsNjguNDE3MTE0NyBDMjYuMjY0MjkyNSw2OC40MTcxMTQ3IDMwLjY1ODcwNzIsNzAuMDUyMjQ1NyAzMi45MDcwMTI0LDcxLjE3NjM5ODMgTDM1LjU2NDEwMDMsNjAuNTQ4MDQ2NSBDMzIuNDk4MjI5Niw1OS4wMTUxMTEyIDI3LjM4ODQ0NTEsNTcuNTg0MzcxNSAyMS41NjMyOTA3LDU3LjU4NDM3MTUgQzkuMTk3NjEyMTUsNTcuNTg0MzcxNSAxLjIyNjM0ODI5LDY0LjYzNTg3NDEgMS4yMjYzNDgyOSw3NC4wMzc4Nzc3IEMxLjEyNDE1MjYsNzkuODYzMDMyIDUuMTA5Nzg0NTMsODUuNDgzNzk1IDE1LjUzMzc0NSw4OC45NTg0NDg1IEMyMS4yNTY3MDM2LDkwLjc5Nzk3MDkgMjIuNzg5NjM5LDkyLjEyNjUxNDkgMjIuNzg5NjM5LDk0LjY4MTQwNzIgQzIyLjc4OTYzOSw5Ny4yMzYyOTk0IDIwLjg0NzkyMDksOTguNzY5MjM0OCAxNi4xNDY5MTkxLDk4Ljc2OTIzNDggQzExLjU0ODExMyw5OC43NjkyMzQ4IDUuNjIwNzYyOTgsOTYuODI3NTE2NyAyLjc1OTI4MzY0LDk1LjA5MDE4OTkgTDAsMTA2LjEyNzMyNSBaIE02NS4yMDA4NTA2LDEwOS44MDYzNjkgQzc4LjQ4NjI5MDMsMTA5LjgwNjM2OSA5MS40NjUxNDMsMTAxLjQyNjMyMyA5MS40NjUxNDMsODMuMjM1NDg5OCBDOTEuNDY1MTQzLDY4LjExMDUyNzYgODEuMjQ1NTc0LDU3LjU4NDM3MTUgNjYuMDE4NDE2MSw1Ny41ODQzNzE1IEM0OS44NzE0OTcsNTcuNTg0MzcxNSAzOS4yNDMxNDUyLDY3LjkwNjEzNjIgMzkuMjQzMTQ1Miw4NC4wNTMwNTU0IEMzOS4yNDMxNDUyLDEwMC4xOTk5NzQgNTAuNDg0NjcxMSwxMDkuODA2MzY5IDY1LjA5ODY1NDksMTA5LjgwNjM2OSBMNjUuMjAwODUwNiwxMDkuODA2MzY5IFogTTY1LjQwNTI0MTksOTguNjY3MDM5MSBDNTguODY0NzE3OCw5OC42NjcwMzkxIDU1LjI4Nzg2ODYsOTIuMjI4NzEwNiA1NS4yODc4Njg2LDgzLjc0NjQ2ODMgQzU1LjI4Nzg2ODYsNzYuMjg2MTgyOSA1OC4xNDkzNDc5LDY4LjcyMzcwMTggNjUuNTA3NDM3Niw2OC43MjM3MDE4IEM3Mi41NTg5NDAzLDY4LjcyMzcwMTggNzUuNDIwNDE5Niw3Ni4yODYxODI5IDc1LjQyMDQxOTYsODMuNjQ0MjcyNiBDNzUuNDIwNDE5Niw5Mi42Mzc0OTM0IDcxLjYzOTE3OTEsOTguNjY3MDM5MSA2NS41MDc0Mzc2LDk4LjY2NzAzOTEgTDY1LjQwNTI0MTksOTguNjY3MDM5MSBaIE05NS45NjE3NTM0LDEwOC42ODIyMTcgTDExMS40OTU0OTgsMTA4LjY4MjIxNyBMMTExLjQ5NTQ5OCw3OS44NjMwMzIgQzExMS40OTU0OTgsNzguNDMyMjkyNCAxMTEuNTk3Njk0LDc3LjAwMTU1MjcgMTEyLjAwNjQ3Nyw3NS45Nzk1OTU4IEMxMTMuMTMwNjI5LDczLjExODExNjUgMTE1LjY4NTUyMiw3MC4xNTQ0NDE0IDExOS45Nzc3NDEsNzAuMTU0NDQxNCBDMTI1LjU5ODUwNCw3MC4xNTQ0NDE0IDEyNy44NDY4MDksNzQuNTQ4ODU2MSAxMjcuODQ2ODA5LDgwLjk4NzE4NDYgTDEyNy44NDY4MDksMTA4LjY4MjIxNyBMMTQzLjM4MDU1NCwxMDguNjgyMjE3IEwxNDMuMzgwNTU0LDc5LjE0NzY2MjIgQzE0My4zODA1NTQsNjQuNDMxNDgyOCAxMzUuNzE1ODc3LDU3LjU4NDM3MTUgMTI1LjQ5NjMwOCw1Ny41ODQzNzE1IEMxMTcuMTE2MjYxLDU3LjU4NDM3MTUgMTEyLjEwODY3Myw2Mi4zODc1NjkgMTEwLjA2NDc1OSw2NS42NTc4MzExIEwxMDkuNzU4MTcyLDY1LjY1NzgzMTEgTDEwOS4wNDI4MDIsNTguNzA4NTI0MSBMOTUuNTUyOTcwNyw1OC43MDg1MjQxIEM5NS43NTczNjIsNjMuMjA1MTM0NSA5NS45NjE3NTM0LDY4LjQxNzExNDcgOTUuOTYxNzUzNCw3NC42NTEwNTE4IEw5NS45NjE3NTM0LDEwOC42ODIyMTcgWiBNMTkyLjMzMjI5LDc5LjE0NzY2MjIgQzE5Mi4zMzIyOSw2Ny4zOTUxNTc4IDE4Ny4xMjAzMDksNTcuNTg0MzcxNSAxNzAuNDYyNDEyLDU3LjU4NDM3MTUgQzE2MS4zNjY5OTUsNTcuNTg0MzcxNSAxNTQuNTE5ODg0LDYwLjEzOTI2MzggMTUxLjA0NTIzMSw2Mi4wODA5ODE5IEwxNTMuOTA2NzEsNzEuOTkzOTYzOSBDMTU3LjE3Njk3Miw3MC4wNTIyNDU3IDE2Mi41OTMzNDQsNjguMzE0OTE5IDE2Ny43MDMxMjgsNjguMzE0OTE5IEMxNzUuMzY3ODA1LDY4LjMxNDkxOSAxNzYuNzk4NTQ1LDcyLjA5NjE1OTYgMTc2Ljc5ODU0NSw3NC43NTMyNDc1IEwxNzYuNzk4NTQ1LDc1LjM2NjQyMTcgQzE1OS4xMTg2OSw3NS4zNjY0MjE3IDE0Ny40NjgzODEsODEuNDk4MTYzMSAxNDcuNDY4MzgxLDk0LjQ3NzAxNTggQzE0Ny40NjgzODEsMTAyLjQ0ODI4IDE1My40OTc5MjcsMTA5LjgwNjM2OSAxNjMuNjE1MzAxLDEwOS44MDYzNjkgQzE2OS41NDI2NTEsMTA5LjgwNjM2OSAxNzQuNjUyNDM1LDEwNy42NjAyNiAxNzcuOTIyNjk3LDEwMy42NzQ2MjggTDE3OC4yMjkyODQsMTAzLjY3NDYyOCBMMTc5LjE0OTA0NiwxMDguNjgyMjE3IEwxOTMuMTQ5ODU1LDEwOC42ODIyMTcgQzE5Mi41MzY2ODEsMTA1LjkyMjkzMyAxOTIuMzMyMjksMTAxLjMyNDEyNyAxOTIuMzMyMjksOTYuNjIzMTI1MyBMMTkyLjMzMjI5LDc5LjE0NzY2MjIgWiBNMTc3LjMwOTUyMyw5MC40OTEzODM5IEMxNzcuMzA5NTIzLDkxLjQxMTE0NTEgMTc3LjIwNzMyNyw5Mi4zMzA5MDYzIDE3Ny4wMDI5MzYsOTMuMTQ4NDcxOCBDMTc1Ljk4MDk3OSw5Ni4zMTY1MzgyIDE3Mi43MTA3MTcsOTguODcxNDMwNSAxNjguOTI5NDc2LDk4Ljg3MTQzMDUgQzE2NS40NTQ4MjMsOTguODcxNDMwNSAxNjIuNzk3NzM1LDk2LjkyOTcxMjQgMTYyLjc5NzczNSw5Mi45NDQwODA0IEMxNjIuNzk3NzM1LDg3LjAxNjczMDQgMTY5LjEzMzg2OCw4NS4wNzUwMTIzIDE3Ny4zMDk1MjMsODUuMDc1MDEyMyBMMTc3LjMwOTUyMyw5MC40OTEzODM5IFogTTE5OS41ODgxODQsMTA4LjY4MjIxNyBMMjE1LjEyMTkyOSwxMDguNjgyMjE3IEwyMTUuMTIxOTI5LDgzLjQzOTg4MTIgQzIxNS4xMjE5MjksODIuMTExMzM3MiAyMTUuMjI0MTI0LDgwLjk4NzE4NDYgMjE1LjQyODUxNiw3OS45NjUyMjc3IEMyMTYuNDUwNDczLDc1LjA1OTgzNDYgMjIwLjMzMzkwOSw3Mi4wOTYxNTk2IDIyNi4wNTY4NjcsNzIuMDk2MTU5NiBDMjI3Ljc5NDE5NCw3Mi4wOTYxNTk2IDIyOS4wMjA1NDIsNzIuMzAwNTUwOSAyMzAuMjQ2ODkxLDcyLjUwNDk0MjMgTDIzMC4yNDY4OTEsNTcuODkwOTU4NiBDMjI5LjEyMjczOCw1Ny42ODY1NjcyIDIyOC40MDczNjgsNTcuNTg0MzcxNSAyMjYuOTc2NjI5LDU3LjU4NDM3MTUgQzIyMi4wNzEyMzYsNTcuNTg0MzcxNSAyMTYuMDQxNjksNjAuNjUwMjQyMiAyMTMuNDg2Nzk4LDY4LjAwODMzMTkgTDIxMy4wNzgwMTUsNjguMDA4MzMxOSBMMjEyLjQ2NDg0MSw1OC43MDg1MjQxIEwxOTkuMTc5NDAxLDU4LjcwODUyNDEgQzE5OS40ODU5ODgsNjMuMDAwNzQzMSAxOTkuNTg4MTg0LDY3LjgwMzk0MDYgMTk5LjU4ODE4NCw3NS4xNjIwMzAzIEwxOTkuNTg4MTg0LDEwOC42ODIyMTcgWiBNMzMxLjY0ODY0OSw1OS40OTY1ODA2IEwzMjIuNjU1NDI4LDU5LjQ5NjU4MDYgTDMyMi42NTU0MjgsODkuNzQ2NTA1IEMzMjIuNjU1NDI4LDkxLjQ4MzgzMTggMzIyLjM0ODg0MSw5My4xMTg5NjI4IDMyMS44Mzc4NjIsOTQuMzQ1MzExMSBDMzIwLjIwMjczMSw5OC40MzMxMzg3IDMxNi4wMTI3MDgsMTAyLjYyMzE2MiAzMDkuOTgzMTYyLDEwMi42MjMxNjIgQzMwMS45MDk3MDMsMTAyLjYyMzE2MiAyOTguOTQ2MDI4LDk2LjE4NDgzMzUgMjk4Ljk0NjAyOCw4Ni43ODI4MyBMMjk4Ljk0NjAyOCw1OS40OTY1ODA2IEwyODkuOTUyODA3LDU5LjQ5NjU4MDYgTDI4OS45NTI4MDcsODguNDE3OTYxIEMyODkuOTUyODA3LDEwNS42ODkwMzMgMjk5LjI1MjYxNSwxMTAuMDgzNDQ3IDMwNy4wMTk0ODcsMTEwLjA4MzQ0NyBDMzE1LjgwODMxNywxMTAuMDgzNDQ3IDMyMS4xMjI0OTIsMTA0Ljg3MTQ2NyAzMjMuMzcwNzk4LDEwMC44ODU4MzUgTDMyMy41NzUxODksMTAwLjg4NTgzNSBMMzI0LjA4NjE2NywxMDguOTU5Mjk1IEwzMzIuMDU3NDMxLDEwOC45NTkyOTUgQzMzMS43NTA4NDQsMTA1LjA3NTg1OSAzMzEuNjQ4NjQ5LDEwMC41NzkyNDggMzMxLjY0ODY0OSw5NS4zNjcyNjggTDMzMS42NDg2NDksNTkuNDk2NTgwNiBaIE0zNDEuNDU5NDM1LDk2LjE4NDgzMzUgQzM0MS40NTk0MzUsMTAwLjU3OTI0OCAzNDEuMzU3MjM5LDEwNS41ODY4MzcgMzQxLjA1MDY1MiwxMDguOTU5Mjk1IEwzNDguODE3NTI1LDEwOC45NTkyOTUgTDM0OS4zMjg1MDMsMTAwLjc4MzY0IEwzNDkuNTMyODk0LDEwMC43ODM2NCBDMzUzLjMxNDEzNSwxMDcuMzI0MTY0IDM1OC45MzQ4OTgsMTEwLjA4MzQ0NyAzNjYuMDg4NTk2LDExMC4wODM0NDcgQzM3Ny4xMjU3MzEsMTEwLjA4MzQ0NyAzODguMzY3MjU3LDEwMS4yOTQ2MTggMzg4LjM2NzI1Nyw4My41MTI1Njc5IEMzODguMzY3MjU3LDY4LjU5MTk5NzEgMzc5Ljc4MjgxOSw1OC4zNzI0MjggMzY3LjUxOTMzNiw1OC4zNzI0MjggQzM1OS41NDgwNzIsNTguMzcyNDI4IDM1My44MjUxMTMsNjEuODQ3MDgxNSAzNTAuNjU3MDQ3LDY3LjM2NTY0ODggTDM1MC40NTI2NTYsNjcuMzY1NjQ4OCBMMzUwLjQ1MjY1NiwzNi40MDAzNTQ2IEwzNDEuNDU5NDM1LDM2LjQwMDM1NDYgTDM0MS40NTk0MzUsOTYuMTg0ODMzNSBaIE0zNTAuNDUyNjU2LDgwLjI0MjMwNTggQzM1MC40NTI2NTYsNzguODExNTY2MSAzNTAuNjU3MDQ3LDc3LjU4NTIxNzggMzUwLjk2MzYzNCw3Ni40NjEwNjUyIEMzNTIuNzAwOTYxLDY5LjcxNjE0OTcgMzU4LjQyMzkxOSw2NS40MjM5MzA3IDM2NC41NTU2NjEsNjUuNDIzOTMwNyBDMzc0LjE2MjA1Niw2NS40MjM5MzA3IDM3OS4yNzE4NCw3My45MDYxNzMgMzc5LjI3MTg0LDgzLjkyMTM1MDcgQzM3OS4yNzE4NCw5NS4yNjUwNzIzIDM3My43NTMyNzMsMTAyLjkyOTc0OSAzNjQuMjQ5MDc0LDEwMi45Mjk3NDkgQzM1Ny44MTA3NDUsMTAyLjkyOTc0OSAzNTIuNDk2NTY5LDk4LjYzNzUzMDEgMzUwLjc1OTI0Myw5Mi40MDM1OTMgQzM1MC41NTQ4NTEsOTEuMzgxNjM2MSAzNTAuNDUyNjU2LDkwLjI1NzQ4MzUgMzUwLjQ1MjY1Niw4OS4xMzMzMzA5IEwzNTAuNDUyNjU2LDgwLjI0MjMwNTggWiBNNDM0LjI1MzEyMiw4NS44NjMwNjg4IEM0MzQuNDU3NTEzLDg0Ljg0MTExMTkgNDM0LjU1OTcwOSw4My41MTI1Njc5IDQzNC41NTk3MDksODEuNjczMDQ1NSBDNDM0LjU1OTcwOSw3Mi41Nzc2MjkgNDMwLjM2OTY4Niw1OC4zNzI0MjggNDE0LjIyMjc2Nyw1OC4zNzI0MjggQzM5OS44MTMxNzQsNTguMzcyNDI4IDM5MC45MjIxNDksNzAuMTI0OTMyNCAzOTAuOTIyMTQ5LDg1LjA0NTUwMzMgQzM5MC45MjIxNDksOTkuODYzODc4NCA0MDAuMTE5NzYxLDEwOS45ODEyNTIgNDE1LjI0NDcyMywxMDkuOTgxMjUyIEM0MjMuMTEzNzkyLDEwOS45ODEyNTIgNDI4LjYzMjM1OSwxMDguMjQzOTI1IDQzMS44MDA0MjUsMTA2LjgxMzE4NSBMNDMwLjE2NTI5NCwxMDAuMzc0ODU3IEM0MjYuODk1MDMyLDEwMS44MDU1OTYgNDIyLjkwOTQsMTAyLjkyOTc0OSA0MTYuNDcxMDcyLDEwMi45Mjk3NDkgQzQwNy40Nzc4NTEsMTAyLjkyOTc0OSAzOTkuODEzMTc0LDk3LjkyMjE2MDMgMzk5LjYwODc4Myw4NS44NjMwNjg4IEw0MzQuMjUzMTIyLDg1Ljg2MzA2ODggWiBNMzk5LjcxMDk3OCw3OS40MjQ3NDAzIEM0MDAuNDI2MzQ4LDczLjE5MDgwMzEgNDA0LjMwOTc4NSw2NC44MTA3NTY1IDQxMy41MDczOTcsNjQuODEwNzU2NSBDNDIzLjUyMjU3NCw2NC44MTA3NTY1IDQyNS45NzUyNzEsNzMuNzAxNzgxNiA0MjUuODczMDc1LDc5LjQyNDc0MDMgTDM5OS43MTA5NzgsNzkuNDI0NzQwMyBaIiBmaWxsPSIjMDcwNzA3Ij4KDTwvcGF0aD4KCQkJCTxwYXRoIGQ9Ik00OTYuNjkzNTM1LDEwOC43ODczMTMgTDQ5MC40MDg1LDEwOC43ODczMTMgQzQ5MC40MDg1LDU4LjE2MjEyMjQgNDQ4LjYzNjAxMSwxNi45NzcyNTkxIDM5Ny4yOTU0NTEsMTYuOTc3MjU5MSBMMzk3LjI5NTQ1MSwxMC42OTIyMjQxIEM0NTIuMTA2NDA2LDEwLjY5MjIyNDEgNDk2LjY5MzUzNSw1NC42ODc0Njg5IDQ5Ni42OTM1MzUsMTA4Ljc4NzMxMyBaIE01MDEuMDM2ODUxLDc1LjAyMDE1MzIgQzQ5My40OTU2NjEsNDMuMjYyODQyMyA0NjcuNzU5MzgsMTYuNzU1ODM1MSA0MzUuNDkxMDksNy40OTAwOTI0OSBMNDM2LjkzODg2MywyLjQ1MjY5NjU3IEM0NzAuOTk1NTc2LDEyLjIzMzY3NTggNDk4LjE1ODMzOSw0MC4yMzUyOTUgNTA2LjEyOTYwMyw3My44MDY1NzkzIEw1MDEuMDM2ODUxLDc1LjAyMDE1MzIgWiBNNTA4LjExMzkwMyw0NS4yMTczMzQ5IEM1MDAuMzM4NTE0LDI4LjI2MTM2NjYgNDg3LjA3ODYyMywxMy40NzI3OTg1IDQ3MC44MDgyMTgsMy41ODExMDczMiBMNDcyLjk4NDEzNCwwIEM0ODkuOTc0MTY4LDEwLjMzMDI4MTEgNTAzLjc5MTg3NywyNS43NTc1NzIyIDUxMS45MTY0MzQsNDMuNDY3MjMzNyBMNTA4LjExMzkwMyw0NS4yMTczMzQ5IFoiIGZpbGw9IiM0OTlDRDIiIGZpbGwtcnVsZT0ibm9uemVybyI+Cg08L3BhdGg+CgkJPC9nPgo8L3N2Zz4=;imageBackground=none;imageBorder=none;fillStyle=solid;strokeWidth=0;" vertex="1" parent="1">
          <mxGeometry x="350" y="50" width="64" height="64" as="geometry" />
        </mxCell>
        <mxCell id="qfEtWsAX8eREh4wjfrbH-27" style="edgeStyle=orthogonalEdgeStyle;orthogonalLoop=1;jettySize=auto;html=1;entryX=0;entryY=0.5;entryDx=0;entryDy=0;curved=1;dashed=1;" edge="1" parent="1" source="qfEtWsAX8eREh4wjfrbH-6" target="qfEtWsAX8eREh4wjfrbH-22">
          <mxGeometry relative="1" as="geometry" />
        </mxCell>
        <mxCell id="qfEtWsAX8eREh4wjfrbH-28" style="edgeStyle=orthogonalEdgeStyle;orthogonalLoop=1;jettySize=auto;html=1;entryX=0;entryY=0.5;entryDx=0;entryDy=0;dashed=1;curved=1;" edge="1" parent="1" source="qfEtWsAX8eREh4wjfrbH-6" target="qfEtWsAX8eREh4wjfrbH-23">
          <mxGeometry relative="1" as="geometry" />
        </mxCell>
        <mxCell id="qfEtWsAX8eREh4wjfrbH-29" style="edgeStyle=orthogonalEdgeStyle;orthogonalLoop=1;jettySize=auto;html=1;dashed=1;curved=1;" edge="1" parent="1" source="qfEtWsAX8eREh4wjfrbH-6" target="qfEtWsAX8eREh4wjfrbH-24">
          <mxGeometry relative="1" as="geometry" />
        </mxCell>
        <mxCell id="qfEtWsAX8eREh4wjfrbH-6" value="Gitlab Runner&#xa;" style="shape=image;aspect=fixed;image=data:image/svg+xml,PHN2ZyB4bWxucz0iaHR0cDovL3d3dy53My5vcmcvMjAwMC9zdmciIHZpZXdCb3g9IjAgMCA0OCA0OCI+PGRlZnMgaWQ9ImdpdGxhYl9zdmdfX2RlZnM0Ij48c3R5bGUgaWQ9InN0eWxlMiI+LmdpdGxhYl9zdmdfX2Nscy0ye2ZpbGw6I2ZjNmQyNn08L3N0eWxlPjwvZGVmcz48ZyBpZD0iZ2l0bGFiX3N2Z19fTE9HTyIgc3R5bGU9InN0cm9rZS13aWR0aDo0LjAwMTEyIiB0cmFuc2Zvcm09InRyYW5zbGF0ZSgtMjMuNDg3IC0yMy40OSkgc2NhbGUoLjI0OTkzKSI+PHBhdGggaWQ9ImdpdGxhYl9zdmdfX3BhdGg2IiBkPSJtMjgyLjgzIDE3MC43My0uMjctLjY5LTI2LjE0LTY4LjIyYTYuODEgNi44MSAwIDAgMC0yLjY5LTMuMjQgNyA3IDAgMCAwLTggLjQzIDcgNyAwIDAgMC0yLjMyIDMuNTJsLTE3LjY1IDU0aC03MS40N2wtMTcuNjUtNTRhNi44NiA2Ljg2IDAgMCAwLTIuMzItMy41MyA3IDcgMCAwIDAtOC0uNDMgNi44NyA2Ljg3IDAgMCAwLTIuNjkgMy4yNEw5Ny40NCAxNzBsLS4yNi42OWE0OC41NCA0OC41NCAwIDAgMCAxNi4xIDU2LjFsLjA5LjA3LjI0LjE3IDM5LjgyIDI5LjgyIDE5LjcgMTQuOTEgMTIgOS4wNmE4LjA3IDguMDcgMCAwIDAgOS43NiAwbDEyLTkuMDYgMTkuNy0xNC45MSA0MC4wNi0zMCAuMS0uMDhhNDguNTYgNDguNTYgMCAwIDAgMTYuMDgtNTYuMDR6IiBzdHlsZT0ic3Ryb2tlLXdpZHRoOjQuMDAxMTI7ZmlsbDojZTI0MzI5Ii8+PHBhdGggaWQ9ImdpdGxhYl9zdmdfX3BhdGg4IiBkPSJtMjgyLjgzIDE3MC43My0uMjctLjY5YTg4LjMgODguMyAwIDAgMC0zNS4xNSAxNS44TDE5MCAyMjkuMjVjMTkuNTUgMTQuNzkgMzYuNTcgMjcuNjQgMzYuNTcgMjcuNjRsNDAuMDYtMzAgLjEtLjA4YTQ4LjU2IDQ4LjU2IDAgMCAwIDE2LjEtNTYuMDh6IiBjbGFzcz0iZ2l0bGFiX3N2Z19fY2xzLTIiIHN0eWxlPSJzdHJva2Utd2lkdGg6NC4wMDExMiIvPjxwYXRoIGlkPSJnaXRsYWJfc3ZnX19wYXRoMTAiIGQ9Im0xNTMuNDMgMjU2Ljg5IDE5LjcgMTQuOTEgMTIgOS4wNmE4LjA3IDguMDcgMCAwIDAgOS43NiAwbDEyLTkuMDYgMTkuNy0xNC45MVMyMDkuNTUgMjQ0IDE5MCAyMjkuMjVjLTE5LjU1IDE0Ljc1LTM2LjU3IDI3LjY0LTM2LjU3IDI3LjY0eiIgc3R5bGU9InN0cm9rZS13aWR0aDo0LjAwMTEyO2ZpbGw6I2ZjYTMyNiIvPjxwYXRoIGlkPSJnaXRsYWJfc3ZnX19wYXRoMTIiIGQ9Ik0xMzIuNTggMTg1Ljg0QTg4LjE5IDg4LjE5IDAgMCAwIDk3LjQ0IDE3MGwtLjI2LjY5YTQ4LjU0IDQ4LjU0IDAgMCAwIDE2LjEgNTYuMWwuMDkuMDcuMjQuMTcgMzkuODIgMjkuODJMMTkwIDIyOS4yMXoiIGNsYXNzPSJnaXRsYWJfc3ZnX19jbHMtMiIgc3R5bGU9InN0cm9rZS13aWR0aDo0LjAwMTEyIi8+PC9nPjwvc3ZnPg==;imageAspect=1;container=0;labelPosition=center;verticalLabelPosition=bottom;align=center;verticalAlign=top;" vertex="1" parent="1">
          <mxGeometry x="20" y="210" width="64" height="64" as="geometry" />
        </mxCell>
        <mxCell id="qfEtWsAX8eREh4wjfrbH-26" value="" style="group;fillColor=none;strokeColor=none;container=0;" vertex="1" connectable="0" parent="1">
          <mxGeometry x="150" y="40" width="64" height="344" as="geometry" />
        </mxCell>
        <mxCell id="qfEtWsAX8eREh4wjfrbH-31" value="" style="group;fillColor=#ffe6cc;strokeColor=#d79b00;" vertex="1" connectable="0" parent="1">
          <mxGeometry x="150" y="40" width="64" height="244" as="geometry" />
        </mxCell>
        <mxCell id="qfEtWsAX8eREh4wjfrbH-22" value="Test&#xa;" style="shape=image;aspect=fixed;image=data:image/svg+xml,PHN2ZyB4bWxucz0iaHR0cDovL3d3dy53My5vcmcvMjAwMC9zdmciIHZpZXdCb3g9IjAgMCA0OCA0OCI+PGRlZnMgaWQ9ImdpdGxhYl9zdmdfX2RlZnM0Ij48c3R5bGUgaWQ9InN0eWxlMiI+LmdpdGxhYl9zdmdfX2Nscy0ye2ZpbGw6I2ZjNmQyNn08L3N0eWxlPjwvZGVmcz48ZyBpZD0iZ2l0bGFiX3N2Z19fTE9HTyIgc3R5bGU9InN0cm9rZS13aWR0aDo0LjAwMTEyIiB0cmFuc2Zvcm09InRyYW5zbGF0ZSgtMjMuNDg3IC0yMy40OSkgc2NhbGUoLjI0OTkzKSI+PHBhdGggaWQ9ImdpdGxhYl9zdmdfX3BhdGg2IiBkPSJtMjgyLjgzIDE3MC43My0uMjctLjY5LTI2LjE0LTY4LjIyYTYuODEgNi44MSAwIDAgMC0yLjY5LTMuMjQgNyA3IDAgMCAwLTggLjQzIDcgNyAwIDAgMC0yLjMyIDMuNTJsLTE3LjY1IDU0aC03MS40N2wtMTcuNjUtNTRhNi44NiA2Ljg2IDAgMCAwLTIuMzItMy41MyA3IDcgMCAwIDAtOC0uNDMgNi44NyA2Ljg3IDAgMCAwLTIuNjkgMy4yNEw5Ny40NCAxNzBsLS4yNi42OWE0OC41NCA0OC41NCAwIDAgMCAxNi4xIDU2LjFsLjA5LjA3LjI0LjE3IDM5LjgyIDI5LjgyIDE5LjcgMTQuOTEgMTIgOS4wNmE4LjA3IDguMDcgMCAwIDAgOS43NiAwbDEyLTkuMDYgMTkuNy0xNC45MSA0MC4wNi0zMCAuMS0uMDhhNDguNTYgNDguNTYgMCAwIDAgMTYuMDgtNTYuMDR6IiBzdHlsZT0ic3Ryb2tlLXdpZHRoOjQuMDAxMTI7ZmlsbDojZTI0MzI5Ii8+PHBhdGggaWQ9ImdpdGxhYl9zdmdfX3BhdGg4IiBkPSJtMjgyLjgzIDE3MC43My0uMjctLjY5YTg4LjMgODguMyAwIDAgMC0zNS4xNSAxNS44TDE5MCAyMjkuMjVjMTkuNTUgMTQuNzkgMzYuNTcgMjcuNjQgMzYuNTcgMjcuNjRsNDAuMDYtMzAgLjEtLjA4YTQ4LjU2IDQ4LjU2IDAgMCAwIDE2LjEtNTYuMDh6IiBjbGFzcz0iZ2l0bGFiX3N2Z19fY2xzLTIiIHN0eWxlPSJzdHJva2Utd2lkdGg6NC4wMDExMiIvPjxwYXRoIGlkPSJnaXRsYWJfc3ZnX19wYXRoMTAiIGQ9Im0xNTMuNDMgMjU2Ljg5IDE5LjcgMTQuOTEgMTIgOS4wNmE4LjA3IDguMDcgMCAwIDAgOS43NiAwbDEyLTkuMDYgMTkuNy0xNC45MVMyMDkuNTUgMjQ0IDE5MCAyMjkuMjVjLTE5LjU1IDE0Ljc1LTM2LjU3IDI3LjY0LTM2LjU3IDI3LjY0eiIgc3R5bGU9InN0cm9rZS13aWR0aDo0LjAwMTEyO2ZpbGw6I2ZjYTMyNiIvPjxwYXRoIGlkPSJnaXRsYWJfc3ZnX19wYXRoMTIiIGQ9Ik0xMzIuNTggMTg1Ljg0QTg4LjE5IDg4LjE5IDAgMCAwIDk3LjQ0IDE3MGwtLjI2LjY5YTQ4LjU0IDQ4LjU0IDAgMCAwIDE2LjEgNTYuMWwuMDkuMDcuMjQuMTcgMzkuODIgMjkuODJMMTkwIDIyOS4yMXoiIGNsYXNzPSJnaXRsYWJfc3ZnX19jbHMtMiIgc3R5bGU9InN0cm9rZS13aWR0aDo0LjAwMTEyIi8+PC9nPjwvc3ZnPg==;imageAspect=1;container=0;align=center;verticalAlign=top;labelPosition=center;verticalLabelPosition=bottom;fillColor=#ffe6cc;strokeColor=#d79b00;" vertex="1" parent="qfEtWsAX8eREh4wjfrbH-31">
          <mxGeometry width="64" height="64" as="geometry" />
        </mxCell>
        <mxCell id="qfEtWsAX8eREh4wjfrbH-23" value="Build&#xa;" style="shape=image;aspect=fixed;image=data:image/svg+xml,PHN2ZyB4bWxucz0iaHR0cDovL3d3dy53My5vcmcvMjAwMC9zdmciIHZpZXdCb3g9IjAgMCA0OCA0OCI+PGRlZnMgaWQ9ImdpdGxhYl9zdmdfX2RlZnM0Ij48c3R5bGUgaWQ9InN0eWxlMiI+LmdpdGxhYl9zdmdfX2Nscy0ye2ZpbGw6I2ZjNmQyNn08L3N0eWxlPjwvZGVmcz48ZyBpZD0iZ2l0bGFiX3N2Z19fTE9HTyIgc3R5bGU9InN0cm9rZS13aWR0aDo0LjAwMTEyIiB0cmFuc2Zvcm09InRyYW5zbGF0ZSgtMjMuNDg3IC0yMy40OSkgc2NhbGUoLjI0OTkzKSI+PHBhdGggaWQ9ImdpdGxhYl9zdmdfX3BhdGg2IiBkPSJtMjgyLjgzIDE3MC43My0uMjctLjY5LTI2LjE0LTY4LjIyYTYuODEgNi44MSAwIDAgMC0yLjY5LTMuMjQgNyA3IDAgMCAwLTggLjQzIDcgNyAwIDAgMC0yLjMyIDMuNTJsLTE3LjY1IDU0aC03MS40N2wtMTcuNjUtNTRhNi44NiA2Ljg2IDAgMCAwLTIuMzItMy41MyA3IDcgMCAwIDAtOC0uNDMgNi44NyA2Ljg3IDAgMCAwLTIuNjkgMy4yNEw5Ny40NCAxNzBsLS4yNi42OWE0OC41NCA0OC41NCAwIDAgMCAxNi4xIDU2LjFsLjA5LjA3LjI0LjE3IDM5LjgyIDI5LjgyIDE5LjcgMTQuOTEgMTIgOS4wNmE4LjA3IDguMDcgMCAwIDAgOS43NiAwbDEyLTkuMDYgMTkuNy0xNC45MSA0MC4wNi0zMCAuMS0uMDhhNDguNTYgNDguNTYgMCAwIDAgMTYuMDgtNTYuMDR6IiBzdHlsZT0ic3Ryb2tlLXdpZHRoOjQuMDAxMTI7ZmlsbDojZTI0MzI5Ii8+PHBhdGggaWQ9ImdpdGxhYl9zdmdfX3BhdGg4IiBkPSJtMjgyLjgzIDE3MC43My0uMjctLjY5YTg4LjMgODguMyAwIDAgMC0zNS4xNSAxNS44TDE5MCAyMjkuMjVjMTkuNTUgMTQuNzkgMzYuNTcgMjcuNjQgMzYuNTcgMjcuNjRsNDAuMDYtMzAgLjEtLjA4YTQ4LjU2IDQ4LjU2IDAgMCAwIDE2LjEtNTYuMDh6IiBjbGFzcz0iZ2l0bGFiX3N2Z19fY2xzLTIiIHN0eWxlPSJzdHJva2Utd2lkdGg6NC4wMDExMiIvPjxwYXRoIGlkPSJnaXRsYWJfc3ZnX19wYXRoMTAiIGQ9Im0xNTMuNDMgMjU2Ljg5IDE5LjcgMTQuOTEgMTIgOS4wNmE4LjA3IDguMDcgMCAwIDAgOS43NiAwbDEyLTkuMDYgMTkuNy0xNC45MVMyMDkuNTUgMjQ0IDE5MCAyMjkuMjVjLTE5LjU1IDE0Ljc1LTM2LjU3IDI3LjY0LTM2LjU3IDI3LjY0eiIgc3R5bGU9InN0cm9rZS13aWR0aDo0LjAwMTEyO2ZpbGw6I2ZjYTMyNiIvPjxwYXRoIGlkPSJnaXRsYWJfc3ZnX19wYXRoMTIiIGQ9Ik0xMzIuNTggMTg1Ljg0QTg4LjE5IDg4LjE5IDAgMCAwIDk3LjQ0IDE3MGwtLjI2LjY5YTQ4LjU0IDQ4LjU0IDAgMCAwIDE2LjEgNTYuMWwuMDkuMDcuMjQuMTcgMzkuODIgMjkuODJMMTkwIDIyOS4yMXoiIGNsYXNzPSJnaXRsYWJfc3ZnX19jbHMtMiIgc3R5bGU9InN0cm9rZS13aWR0aDo0LjAwMTEyIi8+PC9nPjwvc3ZnPg==;imageAspect=1;container=0;align=center;verticalAlign=top;labelPosition=center;verticalLabelPosition=bottom;fillColor=#ffe6cc;strokeColor=#d79b00;" vertex="1" parent="qfEtWsAX8eREh4wjfrbH-31">
          <mxGeometry y="80" width="64" height="64" as="geometry" />
        </mxCell>
        <mxCell id="qfEtWsAX8eREh4wjfrbH-24" value="Release&#xa;" style="shape=image;aspect=fixed;image=data:image/svg+xml,PHN2ZyB4bWxucz0iaHR0cDovL3d3dy53My5vcmcvMjAwMC9zdmciIHZpZXdCb3g9IjAgMCA0OCA0OCI+PGRlZnMgaWQ9ImdpdGxhYl9zdmdfX2RlZnM0Ij48c3R5bGUgaWQ9InN0eWxlMiI+LmdpdGxhYl9zdmdfX2Nscy0ye2ZpbGw6I2ZjNmQyNn08L3N0eWxlPjwvZGVmcz48ZyBpZD0iZ2l0bGFiX3N2Z19fTE9HTyIgc3R5bGU9InN0cm9rZS13aWR0aDo0LjAwMTEyIiB0cmFuc2Zvcm09InRyYW5zbGF0ZSgtMjMuNDg3IC0yMy40OSkgc2NhbGUoLjI0OTkzKSI+PHBhdGggaWQ9ImdpdGxhYl9zdmdfX3BhdGg2IiBkPSJtMjgyLjgzIDE3MC43My0uMjctLjY5LTI2LjE0LTY4LjIyYTYuODEgNi44MSAwIDAgMC0yLjY5LTMuMjQgNyA3IDAgMCAwLTggLjQzIDcgNyAwIDAgMC0yLjMyIDMuNTJsLTE3LjY1IDU0aC03MS40N2wtMTcuNjUtNTRhNi44NiA2Ljg2IDAgMCAwLTIuMzItMy41MyA3IDcgMCAwIDAtOC0uNDMgNi44NyA2Ljg3IDAgMCAwLTIuNjkgMy4yNEw5Ny40NCAxNzBsLS4yNi42OWE0OC41NCA0OC41NCAwIDAgMCAxNi4xIDU2LjFsLjA5LjA3LjI0LjE3IDM5LjgyIDI5LjgyIDE5LjcgMTQuOTEgMTIgOS4wNmE4LjA3IDguMDcgMCAwIDAgOS43NiAwbDEyLTkuMDYgMTkuNy0xNC45MSA0MC4wNi0zMCAuMS0uMDhhNDguNTYgNDguNTYgMCAwIDAgMTYuMDgtNTYuMDR6IiBzdHlsZT0ic3Ryb2tlLXdpZHRoOjQuMDAxMTI7ZmlsbDojZTI0MzI5Ii8+PHBhdGggaWQ9ImdpdGxhYl9zdmdfX3BhdGg4IiBkPSJtMjgyLjgzIDE3MC43My0uMjctLjY5YTg4LjMgODguMyAwIDAgMC0zNS4xNSAxNS44TDE5MCAyMjkuMjVjMTkuNTUgMTQuNzkgMzYuNTcgMjcuNjQgMzYuNTcgMjcuNjRsNDAuMDYtMzAgLjEtLjA4YTQ4LjU2IDQ4LjU2IDAgMCAwIDE2LjEtNTYuMDh6IiBjbGFzcz0iZ2l0bGFiX3N2Z19fY2xzLTIiIHN0eWxlPSJzdHJva2Utd2lkdGg6NC4wMDExMiIvPjxwYXRoIGlkPSJnaXRsYWJfc3ZnX19wYXRoMTAiIGQ9Im0xNTMuNDMgMjU2Ljg5IDE5LjcgMTQuOTEgMTIgOS4wNmE4LjA3IDguMDcgMCAwIDAgOS43NiAwbDEyLTkuMDYgMTkuNy0xNC45MVMyMDkuNTUgMjQ0IDE5MCAyMjkuMjVjLTE5LjU1IDE0Ljc1LTM2LjU3IDI3LjY0LTM2LjU3IDI3LjY0eiIgc3R5bGU9InN0cm9rZS13aWR0aDo0LjAwMTEyO2ZpbGw6I2ZjYTMyNiIvPjxwYXRoIGlkPSJnaXRsYWJfc3ZnX19wYXRoMTIiIGQ9Ik0xMzIuNTggMTg1Ljg0QTg4LjE5IDg4LjE5IDAgMCAwIDk3LjQ0IDE3MGwtLjI2LjY5YTQ4LjU0IDQ4LjU0IDAgMCAwIDE2LjEgNTYuMWwuMDkuMDcuMjQuMTcgMzkuODIgMjkuODJMMTkwIDIyOS4yMXoiIGNsYXNzPSJnaXRsYWJfc3ZnX19jbHMtMiIgc3R5bGU9InN0cm9rZS13aWR0aDo0LjAwMTEyIi8+PC9nPjwvc3ZnPg==;imageAspect=1;container=0;align=center;verticalAlign=top;labelPosition=center;verticalLabelPosition=bottom;fillColor=#ffe6cc;strokeColor=#d79b00;" vertex="1" parent="qfEtWsAX8eREh4wjfrbH-31">
          <mxGeometry y="180" width="64" height="64" as="geometry" />
        </mxCell>
        <mxCell id="qfEtWsAX8eREh4wjfrbH-32" value="" style="group;fillColor=none;strokeColor=none;container=0;" vertex="1" connectable="0" parent="1">
          <mxGeometry x="360" y="160" width="64" height="128" as="geometry" />
        </mxCell>
        <mxCell id="qfEtWsAX8eREh4wjfrbH-36" style="edgeStyle=orthogonalEdgeStyle;rounded=1;orthogonalLoop=1;jettySize=auto;html=1;entryX=0;entryY=0.25;entryDx=0;entryDy=0;dashed=1;" edge="1" parent="1" source="qfEtWsAX8eREh4wjfrbH-12" target="qfEtWsAX8eREh4wjfrbH-11">
          <mxGeometry relative="1" as="geometry" />
        </mxCell>
        <mxCell id="qfEtWsAX8eREh4wjfrbH-44" value="Deploy" style="edgeLabel;html=1;align=center;verticalAlign=middle;resizable=0;points=[];" vertex="1" connectable="0" parent="qfEtWsAX8eREh4wjfrbH-36">
          <mxGeometry x="0.0163" y="1" relative="1" as="geometry">
            <mxPoint as="offset" />
          </mxGeometry>
        </mxCell>
        <mxCell id="qfEtWsAX8eREh4wjfrbH-12" value="" style="shape=image;aspect=fixed;image=data:image/svg+xml,PD94bWwgdmVyc2lvbj0iMS4wIiBlbmNvZGluZz0idXRmLTgiPz4KDTwhLS0gVXBsb2FkZWQgdG86IFNWRyBSZXBvLCB3d3cuc3ZncmVwby5jb20sIEdlbmVyYXRvcjogU1ZHIFJlcG8gTWl4ZXIgVG9vbHMgLS0+Cjxzdmcgd2lkdGg9IjgwMHB4IiBoZWlnaHQ9IjgwMHB4IiB2aWV3Qm94PSIwIDAgMTYgMTYiIHhtbG5zPSJodHRwOi8vd3d3LnczLm9yZy8yMDAwL3N2ZyIgZmlsbD0ibm9uZSI+Cg08ZyBmaWxsPSIjMEYxNjg5Ij4KDTxwYXRoIGQ9Ik00LjgwNyA0LjM3N2wuMDE2LjAxNS0uMTQ3LjE0N2ExMS45MyAxMS45MyAwIDAwLS4zMTQuMzI0Yy0uMTk3LjIxMy0uMzcyLjQ1Mi0uMzg5LjUyaC45MWEuMTMyLjEzMiAwIDAwLjEwOS0uMDQ5QTQuMSA0LjEgMCAwMTcuNzc4IDRhNC4xNCA0LjE0IDAgMDEzLjMxNyAxLjMzNi4xMTIuMTEyIDAgMDAuMDg5LjA0N2wuNTk1LS4wMDFoLjI5NWEuMzEuMzEgMCAwMC4wNDctLjAwOSA0Ljk4MiA0Ljk4MiAwIDAwLS43NDUtLjg2NGwuMDEzLS4wMTNhMy4wMDYgMy4wMDYgMCAwMC43Mi0uODIzYy4xMzUtLjIxMy4yMzctLjQ0Ni4zLS42OWEuODM4LjgzOCAwIDAwLjAyMi0uMjljLS4wMTMtLjEzMi0uMDg2LS4yNDMtLjI2Mi0uMjIyYS40ODQuNDg0IDAgMDAtLjEwMy4wMjMgMS4wNTggMS4wNTggMCAwMC0uMzMuMTkzIDMuMDQzIDMuMDQzIDAgMDAtLjkyMiAxLjMxbC0uMDE0LjAzLS4wMDYuMDExYy0uMDU0LS4wMy0uMTA4LS4wNjItLjE2LS4wOTMtLjEyMi0uMDctLjI0LS4xNC0uMzY0LS4yMDItLjE4LS4wOS0uMzY0LS4xNy0uNTUzLS4yNGE1LjIxNyA1LjIxNyAwIDAwLS45ODItLjI0N2MtLjA2MS0uMDEtLjEyMi0uMDItLjE4My0uMDMyYTMuMTUgMy4xNSAwIDAwLjAzOC0xLjQ4MiAxLjQ4NiAxLjQ4NiAwIDAwLS4xNDctLjQxLjQ4NC40ODQgMCAwMC0uMTYzLS4xOS4xOTcuMTk3IDAgMDAtLjIyNS4wMDIuNDQuNDQgMCAwMC0uMDg5LjA4Ljg3Ny44NzcgMCAwMC0uMTUzLjI4NGMtLjA2OC4xOTctLjExLjQwMi0uMTI1LjYxYTMuMTUgMy4xNSAwIDAwLjA4MyAxLjA3M2wuMDA0LjAyM2E0LjkzOCA0LjkzOCAwIDAwLTIuMjY4LjY5NmwtLjAwOS0uMDA3YS4wMjkuMDI5IDAgMDEtLjAwNy0uMDA3IDMuMTUgMy4xNSAwIDAwLS42Mi0uOTYgMS43NTIgMS43NTIgMCAwMC0uNDk0LS4zOTcuNzY1Ljc2NSAwIDAwLS4xNi0uMDYyYy0uMTc3LS4wNDMtLjI5OC4wNDktLjMxLjIzbC0uMDAxLjAyM3YuMDE2Yy0uMDA3LjE0LjAyOC4yNzIuMDc0LjQwMi4xNjYuNDY0LjQzOS44NTYuNzkyIDEuMTk2bC4wMzUuMDMzek0xMS4zNzYgMTEuNTAyYy4yNDktLjIzLjQ3NC0uNDg1LjY3LS43NmwtLjAwNC0uMDE3aC0uMjk0Yy0uMiAwLS40LjAwMS0uNi0uMDAyYS4yMTYuMjE2IDAgMDAtLjE2OC4wNjljLS45NS45MjgtMi4wODYgMS4zMjgtMy40MDUgMS4yYTMuOTE4IDMuOTE4IDAgMDEtMS4zOTItLjQxNCA0LjExMyA0LjExMyAwIDAxLTEuMTAzLS44MDkuMTMuMTMgMCAwMC0uMTA0LS4wNDVsLS42MTYuMDAxaC0uMjY3YS4zODMuMzgzIDAgMDAtLjA2NC4wMDVjLjIzLjMyMy40OTcuNjE3Ljc5Ny44NzdhLjEwNS4xMDUgMCAwMS0uMDEuMDE4bC0uMDI1LjAyMy0uMDE0LjAxNGEzLjE1IDMuMTUgMCAwMC0uNzQyIDEuMDU3IDEuNTUyIDEuNTUyIDAgMDAtLjEyMS40LjU1NS41NTUgMCAwMC4wMi4yOTQuMTk5LjE5OSAwIDAwLjE1LjEyNWMuMDYyLjAxLjEyNS4wMDQuMTgzLS4wMmExLjA3IDEuMDcgMCAwMC4zMzctLjE5NGMuMzc2LS4zMTMuNjczLS43MS44NjUtMS4xNmwuMDItLjA0NC4wMTEtLjAyNGE0LjkzIDQuOTMgMCAwMDIuMjY3LjdsLjAwMy4wMWMuMDAyLjAwNS4wMDMuMDA4LjAwMi4wMWEyLjY0NSAyLjY0NSAwIDAwLS4wOTEuNTgyYy0uMDE2LjI0OC0uMDAzLjQ5Ny4wMzguNzQxLjAzMi4xOC4wNzYuMzU2LjE2Mi41MTcuMDMuMDU3LjA2Ny4xMS4xMS4xNTguMTA4LjExOC4yNDEuMTE3LjM1My4wMDJhLjM3NS4zNzUgMCAwMC4wNjUtLjA4NGMuMDQ0LS4wNzkuMDgzLS4xNi4xMTctLjI0NC4wNy0uMjAzLjExMi0uNDE1LjEyNC0uNjNhMy4wNTcgMy4wNTcgMCAwMC0uMDkyLTEuMDU5bC0uMDA0LS4wMjJjLjI2OC0uMDMuNTMzLS4wOC43OTMtLjE1LjI1NS0uMDcyLjUwNS0uMTYzLjc0Ny0uMjczYTUuNDQgNS40NCAwIDAwLjctLjM5MmwuMDA5LjAyMi4wMTEuMDNjLjE4NC41MTIuNTAzLjk2NC45MjMgMS4zMDguMDguMDY0LjE2NS4xMTguMjU3LjE2My4wNi4wMjkuMTIzLjA0OC4xOS4wNTZhLjIwMi4yMDIgMCAwMC4yMjgtLjE0LjQxOC40MTggMCAwMC4wMi0uMTA0Ljk2OS45NjkgMCAwMC0uMDYxLS40MDMgMy4wMzIgMy4wMzIgMCAwMC0uOTQzLTEuMzQ4bC0uMDUyLS4wNDR6TTEwLjgyIDYuNTM3bC4wNzIuMDAxYy4wNTMuMDAxLjEwNS4wMDMuMTU2LS4wMDIuMDg0LS4wMDguMTQ0LjAyMi4yMDUuMDc5LjI2Ni4yNDUuNTM0LjQ4OC44MDIuNzNsLjI2NC4yNGMuMDExLjAxLjAyNC4wMi4wMzcuMDMzbC4wMjIuMDE5LjAyLS4wMTguMDQtLjAzNSAxLjEtMS4wMDJhLjE1Mi4xNTIgMCAwMS4xMTctLjA0NiAzLjk0NiAzLjk0NiAwIDAwLjI3Ni4wMDF2Mi45NWE2LjgwMSA2LjgwMSAwIDAxLS43NzQuMDAyVjcuOTk1bC0uMDE1LS4wMDctLjc2My42OTYtLjc2OS0uNjkzLS4wMTUuMDA1djEuNDk5aC0uNzY4Yy0uMDE0LS4wNS0uMDItMi43OS0uMDA2LTIuOTU4ek00LjQ5NyA2LjU0aC0uNzYzdjEuMDQ2YTkuNTk1IDkuNTk1IDAgMDEtLjk1LS4wMDR2LTEuMDRoLS43N3YyLjk0N2MuMDY0LjAxNS43MTYuMDE0Ljc3NC0uMDA0VjguMzczaC45NDZWOS4xMTZjMCAuMTI2LS4wMDEuMjUzLjAwMi4zOEg0LjVjLjAxNi0uMDcyLjAxMy0yLjkwNi0uMDAzLTIuOTU1ek01LjQxMiA5LjQ5NFY2LjU1Yy4wNDUtLjAxNCAxLjcyMy0uMDIgMS44MzMtLjAwNXYuNjI3bC0uMDE1LjAwMmgtLjAwOGEuNTc4LjU3OCAwIDAxLS4wNTIuMDAzaC0uOTh2LjQ4OWguOTM0di42NWgtLjkyNmEzLjUgMy41IDAgMDAtLjAwNy41NWwuMDIzLjAwMWMuMDE3LjAwMi4wMzQuMDAzLjA1Mi4wMDNoLjk3OXYuNjI1SDUuNDEyek04LjEyMyA2LjU0Yy0uMDE0LjA1NS0uMDE3IDIuODc2LS4wMDMgMi45NTVoMS44MzJ2LS43NzJoLS45ODVsLS4wNTMtLjAwMy0uMDMtLjAwMlY2LjU0MWgtLjc2MXoiLz4KDTwvZz4KDTwvc3ZnPg==;container=0;fillColor=none;strokeColor=none;" vertex="1" parent="1">
          <mxGeometry x="360" y="284" width="64" height="64" as="geometry" />
        </mxCell>
        <mxCell id="qfEtWsAX8eREh4wjfrbH-13" value="Docker Hub&#xa;" style="shape=image;aspect=fixed;image=data:image/svg+xml,PD94bWwgdmVyc2lvbj0iMS4wIiBlbmNvZGluZz0idXRmLTgiPz48IS0tIFVwbG9hZGVkIHRvOiBTVkcgUmVwbywgd3d3LnN2Z3JlcG8uY29tLCBHZW5lcmF0b3I6IFNWRyBSZXBvIE1peGVyIFRvb2xzIC0tPgo8c3ZnIHdpZHRoPSI4MDBweCIgaGVpZ2h0PSI4MDBweCIgdmlld0JveD0iMCAwIDE2IDE2IiB4bWxucz0iaHR0cDovL3d3dy53My5vcmcvMjAwMC9zdmciIGZpbGw9Im5vbmUiPjxwYXRoIGZpbGw9IiMyMzk2RUQiIGQ9Ik0xMi4zNDIgNC41MzZsLjE1LS4yMjcuMjYyLjE1OS4xMTYuMDgzYy4yOC4yMTYuODY5Ljc2OC45OTYgMS42ODQuMjIzLS4wNC40NDgtLjA2LjY3My0uMDYuNTM0IDAgLjg5My4xMjQgMS4wOTcuMjI3bC4xMDUuMDU3LjA2OC4wNDUuMTkxLjE1Ni0uMDY2LjJhMi4wNDQgMi4wNDQgMCAwMS0uNDcuNzNjLS4yOS4yOTktLjguNjUyLTEuNjA5LjY5OGwtLjE3OC4wMDVoLS4xNDhjLS4zNy45NzctLjg2NyAyLjA3OC0xLjcwMiAzLjA2NmE3LjA4MSA3LjA4MSAwIDAxLTEuNzQgMS40ODggNy45NDEgNy45NDEgMCAwMS0yLjU0OS45NjhjLS42NDQuMTI1LTEuMjk4LjE4Ny0xLjk1My4xODUtMS40NSAwLTIuNzMtLjI4OC0zLjUxNy0uNzkyLS43MDMtLjQ0OS0xLjI0My0xLjE4Mi0xLjYwNi0yLjE3N2E4LjI1IDguMjUgMCAwMS0uNDYxLTIuODMuNTE2LjUxNiAwIDAxLjQzMi0uNTE2bC4wNjgtLjAwNWgxMC41NGwuMDkyLS4wMDcuMTQ5LS4wMTZjLjI1Ni0uMDM0LjY0Ni0uMTEuOTItLjI3LS4zMjgtLjU0My0uNDIxLTEuMTc4LS4yNjgtMS44NTRhMy4zIDMuMyAwIDAxLjMtLjgxbC4xMDgtLjE4N3pNMi44OSA1Ljc4NGwuMDQuMDA3YS4xMjcuMTI3IDAgMDEuMDc3LjA4MmwuMDA2LjA0djEuMzE1bC0uMDA2LjA0MWEuMTI3LjEyNyAwIDAxLS4wNzguMDgybC0uMDM5LjAwNkgxLjQ3OGEuMTI0LjEyNCAwIDAxLS4xMTctLjA4OGwtLjAwNy0uMDRWNS45MTJsLjAwNy0uMDRhLjEyNy4xMjcgMCAwMS4wNzgtLjA4M2wuMDM5LS4wMDZIMi44OXptMS45NDcgMGwuMDM5LjAwN2EuMTI3LjEyNyAwIDAxLjA3OC4wODJsLjAwNi4wNHYxLjMxNWwtLjAwNy4wNDFhLjEyNy4xMjcgMCAwMS0uMDc4LjA4MmwtLjAzOS4wMDZIMy40MjRhLjEyNS4xMjUgMCAwMS0uMTE3LS4wODhMMy4zIDcuMjNWNS45MTNhLjEzLjEzIDAgMDEuMDg1LS4xMjNsLjAzOS0uMDA3aDEuNDEzem0xLjk3NiAwbC4wMzkuMDA3YS4xMjcuMTI3IDAgMDEuMDc3LjA4MmwuMDA3LjA0djEuMzE1bC0uMDA3LjA0MWEuMTI3LjEyNyAwIDAxLS4wNzguMDgybC0uMDM5LjAwNkg1LjRhLjEyNC4xMjQgMCAwMS0uMTE3LS4wODhsLS4wMDYtLjA0VjUuOTEybC4wMDYtLjA0YS4xMjcuMTI3IDAgMDEuMDc4LS4wODNsLjAzOS0uMDA2aDEuNDEzem0xLjk1MiAwbC4wMzkuMDA3YS4xMjcuMTI3IDAgMDEuMDc4LjA4MmwuMDA3LjA0djEuMzE1YS4xMy4xMyAwIDAxLS4wODUuMTIzbC0uMDQuMDA2SDcuMzUzYS4xMjQuMTI0IDAgMDEtLjExNy0uMDg4bC0uMDA2LS4wNFY1LjkxMmwuMDA2LS4wNGEuMTI3LjEyNyAwIDAxLjA3OC0uMDgzbC4wNC0uMDA2aDEuNDEyem0xLjk3IDBsLjAzOS4wMDdhLjEyNy4xMjcgMCAwMS4wNzguMDgybC4wMDYuMDR2MS4zMTVhLjEzLjEzIDAgMDEtLjA4NS4xMjNsLS4wMzkuMDA2SDkuMzIyYS4xMjQuMTI0IDAgMDEtLjExNy0uMDg4bC0uMDA2LS4wNFY1LjkxMmwuMDA2LS4wNGEuMTI3LjEyNyAwIDAxLjA3OC0uMDgzbC4wNC0uMDA2aDEuNDExek00LjgzNSAzLjg5MmwuMDQuMDA3YS4xMjcuMTI3IDAgMDEuMDc3LjA4MWwuMDA3LjA0MXYxLjMxNWEuMTMuMTMgMCAwMS0uMDg1LjEyM2wtLjAzOS4wMDdIMy40MjRhLjEyNS4xMjUgMCAwMS0uMTE3LS4wOWwtLjAwNy0uMDRWNC4wMjFhLjEzLjEzIDAgMDEuMDg1LS4xMjJsLjAzOS0uMDA3aDEuNDEyem0xLjk3NiAwbC4wNC4wMDdhLjEyNy4xMjcgMCAwMS4wNzcuMDgxbC4wMDcuMDQxdjEuMzE1YS4xMy4xMyAwIDAxLS4wODUuMTIzbC0uMDM5LjAwN0g1LjRhLjEyNS4xMjUgMCAwMS0uMTE3LS4wOWwtLjAwNi0uMDRWNC4wMjFsLjAwNi0uMDRhLjEyNy4xMjcgMCAwMS4wNzgtLjA4MmwuMDM5LS4wMDdoMS40MTJ6bTEuOTUzIDBjLjA1NCAwIC4xLjAzNy4xMTcuMDg4bC4wMDcuMDQxdjEuMzE1YS4xMy4xMyAwIDAxLS4wODUuMTIzbC0uMDQuMDA3SDcuMzUzYS4xMjUuMTI1IDAgMDEtLjExNy0uMDlsLS4wMDYtLjA0VjQuMDIxbC4wMDYtLjA0YS4xMjcuMTI3IDAgMDEuMDc4LS4wODJsLjA0LS4wMDdoMS40MTJ6bTAtMS44OTJjLjA1NCAwIC4xLjAzNy4xMTcuMDg4bC4wMDcuMDR2MS4zMTZhLjEzLjEzIDAgMDEtLjA4NS4xMjNsLS4wNC4wMDZINy4zNTNhLjEyNC4xMjQgMCAwMS0uMTE3LS4wODhsLS4wMDYtLjA0VjIuMTI4bC4wMDYtLjA0YS4xMjcuMTI3IDAgMDEuMDc4LS4wODJMNy4zNTMgMmgxLjQxMnoiLz48L3N2Zz4=;container=0;fillColor=none;strokeColor=none;labelPosition=center;verticalLabelPosition=bottom;align=center;verticalAlign=top;" vertex="1" parent="1">
          <mxGeometry x="360" y="156" width="64" height="64" as="geometry" />
        </mxCell>
        <mxCell id="qfEtWsAX8eREh4wjfrbH-33" style="edgeStyle=orthogonalEdgeStyle;rounded=1;orthogonalLoop=1;jettySize=auto;html=1;dashed=1;" edge="1" parent="1" source="qfEtWsAX8eREh4wjfrbH-23" target="qfEtWsAX8eREh4wjfrbH-13">
          <mxGeometry relative="1" as="geometry" />
        </mxCell>
        <mxCell id="qfEtWsAX8eREh4wjfrbH-38" value="Docker Image&lt;br&gt;" style="edgeLabel;html=1;align=center;verticalAlign=middle;resizable=0;points=[];" vertex="1" connectable="0" parent="qfEtWsAX8eREh4wjfrbH-33">
          <mxGeometry x="-0.4839" y="4" relative="1" as="geometry">
            <mxPoint as="offset" />
          </mxGeometry>
        </mxCell>
        <mxCell id="qfEtWsAX8eREh4wjfrbH-34" style="edgeStyle=orthogonalEdgeStyle;rounded=1;orthogonalLoop=1;jettySize=auto;html=1;entryX=0;entryY=0.75;entryDx=0;entryDy=0;dashed=1;" edge="1" parent="1" source="qfEtWsAX8eREh4wjfrbH-24" target="qfEtWsAX8eREh4wjfrbH-12">
          <mxGeometry relative="1" as="geometry" />
        </mxCell>
        <mxCell id="qfEtWsAX8eREh4wjfrbH-41" value="Helm Charts" style="edgeLabel;html=1;align=center;verticalAlign=middle;resizable=0;points=[];" vertex="1" connectable="0" parent="qfEtWsAX8eREh4wjfrbH-34">
          <mxGeometry x="-0.5575" y="1" relative="1" as="geometry">
            <mxPoint as="offset" />
          </mxGeometry>
        </mxCell>
        <mxCell id="qfEtWsAX8eREh4wjfrbH-35" style="edgeStyle=orthogonalEdgeStyle;rounded=1;orthogonalLoop=1;jettySize=auto;html=1;entryX=0;entryY=0.5;entryDx=0;entryDy=0;dashed=1;" edge="1" parent="1" source="qfEtWsAX8eREh4wjfrbH-22" target="qfEtWsAX8eREh4wjfrbH-16">
          <mxGeometry relative="1" as="geometry" />
        </mxCell>
        <mxCell id="qfEtWsAX8eREh4wjfrbH-40" value="Code Quality&lt;br&gt;" style="edgeLabel;html=1;align=center;verticalAlign=middle;resizable=0;points=[];" vertex="1" connectable="0" parent="qfEtWsAX8eREh4wjfrbH-35">
          <mxGeometry x="-0.2329" y="1" relative="1" as="geometry">
            <mxPoint as="offset" />
          </mxGeometry>
        </mxCell>
        <mxCell id="qfEtWsAX8eREh4wjfrbH-42" value="" style="group;fillColor=#d5e8d4;strokeColor=#82b366;" vertex="1" connectable="0" parent="1">
          <mxGeometry x="800" y="90" width="164" height="224" as="geometry" />
        </mxCell>
        <mxCell id="qfEtWsAX8eREh4wjfrbH-7" value="Kubernetes Cluster" style="shape=image;aspect=fixed;image=data:image/svg+xml,PHN2ZyB4bWxucz0iaHR0cDovL3d3dy53My5vcmcvMjAwMC9zdmciIHZpZXdCb3g9IjAgMCA0OCA0OCI+PHBhdGggZD0iTTM4Ni45MzIgMTc4LjU5OGE0OC45MyA0OC41MyAwIDAgMC0xOC43NTEgNC43NDVsLTI1NS44NzUgMTIyLjI2YTQ4LjkzIDQ4LjUzIDAgMCAwLTI2LjQ3NSAzMi45MkwyMi43MDUgNjEzLjE1YTQ4LjkzIDQ4LjUzIDAgMCAwIDYuNjQzIDM3LjIwOCA0OC45MyA0OC41MyAwIDAgMCAyLjc4MiAzLjg2MmwxNzcuMTA2IDIyMC4yMDVhNDguOTMgNDguNTMgMCAwIDAgMzguMjU2IDE4LjI2bDI4NC4wMTgtLjA2NWE0OC45MyA0OC41MyAwIDAgMCAzOC4yNTUtMTguMjI4bDE3Ny4wNDEtMjIwLjIzOGE0OC45MyA0OC41MyAwIDAgMCA5LjQ1OC00MS4wN2wtNjMuMjI1LTI3NC42MjZhNDguOTMgNDguNTMgMCAwIDAtMjYuNDc0LTMyLjkyTDQxMC42NTcgMTgzLjM0MmE0OC45MyA0OC41MyAwIDAgMC0yMy43MjUtNC43NDV6IiBzdHlsZT0iZmlsbDojMzI2Y2U1O2ZpbGwtb3BhY2l0eToxO3N0cm9rZTpub25lO3N0cm9rZS13aWR0aDowO3N0cm9rZS1taXRlcmxpbWl0OjQ7c3Ryb2tlLWRhc2hhcnJheTpub25lO3N0cm9rZS1vcGFjaXR5OjEiIHRyYW5zZm9ybT0idHJhbnNsYXRlKC0xLjQgLTEwLjkzKSBzY2FsZSguMDY1MjIpIi8+PHBhdGggZD0iTTM4OS40NjcgMjcyLjA1N2MtOC40NTggMC0xNS4zMTYgNy42Mi0xNS4zMTUgMTcuMDE3IDAgLjE0NC4wMy4yODIuMDMzLjQyNS0uMDEzIDEuMjc3LS4wNzQgMi44MTUtLjAzMyAzLjkyNy4yMDIgNS40MiAxLjM4MyA5LjU2OSAyLjA5NCAxNC41NjMgMS4yODkgMTAuNjg4IDIuMzY4IDE5LjU0OCAxLjcwMiAyNy43ODMtLjY0OCAzLjEwNS0yLjkzNSA1Ljk0NS00Ljk3NCA3LjkybC0uMzYgNi40NzlhMTk5LjMyIDE5OS4zMiAwIDAgMC0yNy42ODUgNC4yNTRjLTM5Ljc2NyA5LjAzLTc0LjAwNSAyOS41MTMtMTAwLjA3MiA1Ny4xN2EyNTYuNzA3IDI1Ni43MDcgMCAwIDEtNS41MzEtMy45MjdjLTIuNzM0LjM3LTUuNDk4IDEuMjEzLTkuMDk3LS44ODMtNi44NTQtNC42MTQtMTMuMDk3LTEwLjk4Mi0yMC42NS0xOC42NTMtMy40Ni0zLjY3LTUuOTY3LTcuMTY0LTEwLjA3OS0xMC43MDEtLjkzNC0uODA0LTIuMzU5LTEuODktMy40MDMtMi43MTctMy4yMTUtMi41NjMtNy4wMDctMy45LTEwLjY2OS00LjAyNS00LjcwOC0uMTYtOS4yNCAxLjY4LTEyLjIwNiA1LjQtNS4yNzMgNi42MTMtMy41ODUgMTYuNzIxIDMuNzYzIDIyLjU4LjA3NS4wNi4xNTQuMTA1LjIzLjE2NCAxLjAxLjgxOCAyLjI0NiAxLjg2NyAzLjE3NCAyLjU1MiA0LjM2MyAzLjIyMiA4LjM1IDQuODcxIDEyLjY5NyA3LjQyOSA5LjE2IDUuNjU2IDE2Ljc1MyAxMC4zNDcgMjIuNzc2IDE2LjAwMiAyLjM1MiAyLjUwNyAyLjc2MyA2LjkyNSAzLjA3NyA4LjgzNmw0LjkwOCA0LjM4NWMtMjYuMjc3IDM5LjU0Ni0zOC40MzkgODguMzkzLTMxLjI1MiAxMzguMTY0bC02LjQxNCAxLjg2NWMtMS42OSAyLjE4My00LjA4IDUuNjE4LTYuNTc4IDYuNjQzLTcuODggMi40ODItMTYuNzQ5IDMuMzk0LTI3LjQ1NiA0LjUxNi01LjAyNy40MTgtOS4zNjQuMTY5LTE0LjY5MyAxLjE3OC0xLjE3My4yMjMtMi44MDcuNjQ4LTQuMDkuOTUtLjA0NS4wMDgtLjA4Ny4wMjItLjEzMi4wMzItLjA3LjAxNi0uMTYxLjA1LS4yMjkuMDY1LTkuMDI3IDIuMTgyLTE0LjgyNiAxMC40NzktMTIuOTU5IDE4LjY1NCAxLjg2OCA4LjE3NiAxMC42ODUgMTMuMTQ5IDE5Ljc2NiAxMS4xOTEuMDY2LS4wMTUuMTYtLjAxNy4yMy0uMDMyLjEwMi0uMDI0LjE5Mi0uMDczLjI5NC0uMDk4IDEuMjY2LS4yNzggMi44NTItLjU4NyAzLjk2LS44ODQgNS4yMzktMS40MDMgOS4wMzMtMy40NjQgMTMuNzQ0LTUuMjY5IDEwLjEzMy0zLjYzNCAxOC41MjYtNi42NyAyNi43MDMtNy44NTQgMy40MTUtLjI2NyA3LjAxMyAyLjEwOCA4LjgwMyAzLjExbDYuNjc2LTEuMTQ2YzE1LjM2MiA0Ny42MyA0Ny41NTcgODYuMTI2IDg4LjMyNCAxMTAuMjgybC0yLjc4MiA2LjY3NmMxLjAwMyAyLjU5MiAyLjEwOSA2LjEgMS4zNjIgOC42Ni0yLjk3MyA3LjcwOC04LjA2NCAxNS44NDUtMTMuODYyIDI0LjkxNi0yLjgwOCA0LjE5LTUuNjggNy40NDMtOC4yMTQgMTIuMjM5LS42MDcgMS4xNDgtMS4zNzkgMi45MS0xLjk2NCA0LjEyMy0zLjkzNiA4LjQyMi0xLjA0OSAxOC4xMjIgNi41MTIgMjEuNzYyIDcuNjEgMy42NjMgMTcuMDUzLS4yIDIxLjE0LTguNjQuMDA3LS4wMTEuMDI4LS4wMi4wMzMtLjAzMi4wMDQtLjAwOS0uMDA0LS4wMjMgMC0uMDMzLjU4My0xLjE5NiAxLjQwNy0yLjc2OSAxLjg5OC0zLjg5NCAyLjE3LTQuOTcgMi44OTItOS4yMyA0LjQxOC0xNC4wMzkgNC4wNTItMTAuMTc5IDYuMjc5LTIwLjg1OSAxMS44NTctMjcuNTE0IDEuNTI4LTEuODIyIDQuMDE4LTIuNTIzIDYuNi0zLjIxNGwzLjQ2OS02LjI4M2MzNS41NCAxMy42NDEgNzUuMzIgMTcuMzAyIDExNS4wNiA4LjI3OWExOTguNzI2IDE5OC43MjYgMCAwIDAgMjYuMjc4LTcuOTJjLjk3NSAxLjczIDIuNzg3IDUuMDU0IDMuMjczIDUuODkxIDIuNjIzLjg1NCA1LjQ4NyAxLjI5NCA3LjgyIDQuNzQ1IDQuMTc0IDcuMTMgNy4wMjggMTUuNTY2IDEwLjUwNSAyNS43NTQgMS41MjcgNC44MDggMi4yOCA5LjA2OCA0LjQ1MSAxNC4wNC40OTUgMS4xMzIgMS4zMTUgMi43MjcgMS44OTggMy45MjYgNC4wNzkgOC40NjcgMTMuNTUzIDEyLjM0MyAyMS4xNzMgOC42NzIgNy41Ni0zLjY0MiAxMC40NS0xMy4zNCA2LjUxMi0yMS43NjItLjU4NS0xLjIxMi0xLjM5LTIuOTc1LTEuOTk2LTQuMTIzLTIuNTM0LTQuNzk2LTUuNDA2LTguMDE2LTguMjE0LTEyLjIwNi01Ljc5OC05LjA3LTEwLjYwOC0xNi42MDYtMTMuNTgtMjQuMzE1LTEuMjQ0LTMuOTc1LjIwOS02LjQ0OCAxLjE3Ny05LjAzMi0uNTgtLjY2NC0xLjgyLTQuNDE5LTIuNTUyLTYuMTg1IDQyLjM2Ni0yNS4wMTUgNzMuNjE2LTY0Ljk0OCA4OC4yOTEtMTExLjA2OCAxLjk4Mi4zMTIgNS40MjYuOTIxIDYuNTQ1IDEuMTQ2IDIuMzA0LTEuNTIgNC40MjEtMy41MDEgOC41NzQtMy4xNzQgOC4xNzcgMS4xODIgMTYuNTcgNC4yMiAyNi43MDMgNy44NTMgNC43MSAxLjgwNSA4LjUwNSAzLjkgMTMuNzQ1IDUuMzAyIDEuMTA3LjI5NiAyLjY5NC41NzMgMy45Ni44NS4xMDEuMDI2LjE5Mi4wNzYuMjk0LjA5OS4wNjguMDE1LjE2NC4wMTguMjMuMDMzIDkuMDggMS45NTUgMTcuOS0zLjAxNSAxOS43NjUtMTEuMTkyIDEuODY1LTguMTc2LTMuOTMyLTE2LjQ3NS0xMi45Ni0xOC42NTMtMS4zMTItLjI5OS0zLjE3NC0uODA2LTQuNDUtMS4wNDgtNS4zMjktMS4wMDktOS42NjYtLjc2LTE0LjY5My0xLjE3OC0xMC43MDctMS4xMjItMTkuNTc2LTIuMDM0LTI3LjQ1Ni00LjUxNi0zLjIxMy0xLjI0Ni01LjQ5OS01LjA3LTYuNjEtNi42NDNsLTYuMTg2LTEuOGMzLjIwNy0yMy4yIDIuMzQzLTQ3LjM0NS0zLjIwNy03MS41MDMtNS42LTI0LjM4NC0xNS40OTgtNDYuNjg1LTI4LjctNjYuMzMzIDEuNTg3LTEuNDQzIDQuNTgzLTQuMDk2IDUuNDMzLTQuODc2LjI0OC0yLjc0OC4wMzUtNS42MyAyLjg4LTguNjcyIDYuMDIzLTUuNjU2IDEzLjYxNy0xMC4zNDYgMjIuNzc2LTE2LjAwMyA0LjM0OC0yLjU1OCA4LjM2Ny00LjIwNiAxMi43My03LjQyOC45ODctLjcyOSAyLjMzNC0xLjg4MyAzLjM3LTIuNzE3IDcuMzQ3LTUuODYgOS4wMzktMTUuOTY4IDMuNzY0LTIyLjU4LTUuMjc0LTYuNjEyLTE1LjQ5NS03LjIzNS0yMi44NDItMS4zNzQtMS4wNDUuODI4LTIuNDY0IDEuOTA4LTMuNDAzIDIuNzE2LTQuMTEyIDMuNTM3LTYuNjUxIDcuMDMxLTEwLjExMiAxMC43MDEtNy41NTMgNy42NzItMTMuNzk2IDE0LjA3Mi0yMC42NSAxOC42ODYtMi45NyAxLjcyOS03LjMyIDEuMTMtOS4yOTMgMS4wMTRsLTUuODI1IDQuMTU2Yy0zMy4yMTYtMzQuODMtNzguNDQtNTcuMDk4LTEyNy4xMzYtNjEuNDI0LS4xMzYtMi4wNC0uMzE0LTUuNzMtLjM2LTYuODQtMS45OTMtMS45MDctNC40MDEtMy41MzYtNS4wMDctNy42NTctLjY2Ni04LjIzNS40NDctMTcuMDk1IDEuNzM1LTI3Ljc4My43MTEtNC45OTQgMS44OTMtOS4xNDMgMi4wOTQtMTQuNTYzLjA0Ni0xLjIzMi0uMDI3LTMuMDItLjAzMi00LjM1Mi0uMDAxLTkuMzk4LTYuODU4LTE3LjAxOC0xNS4zMTYtMTcuMDE3em0tMTkuMTc2IDExOC43OS00LjU1IDgwLjM0LS4zMjYuMTY0Yy0uMzA2IDcuMTg3LTYuMjIgMTIuOTI2LTEzLjQ4MyAxMi45MjYtMi45NzUgMC01LjcyLS45NTUtNy45NTItMi41ODVsLS4xMzEuMDY1LTY1Ljg3NS00Ni42OThjMjAuMjQ2LTE5LjkwOCA0Ni4xNDItMzQuNjIgNzUuOTg3LTQxLjM5N2ExNjEuNCAxNjEuNCAwIDAgMSAxNi4zMy0yLjgxNHptMzguMzg2IDBjMzQuODQzIDQuMjg2IDY3LjA2NyAyMC4wNjQgOTEuNzYgNDQuMjQ1bC02NS40NSA0Ni40MDMtLjIyOS0uMDk4Yy01LjgwOSA0LjI0My0xMy45OTQgMy4xOS0xOC41MjItMi40ODdhMTMuNDEyIDEzLjQxMiAwIDAgMS0yLjk0NS03LjgyMWwtLjA2Ni0uMDMzem0tMTU0LjU5MiA3NC4yMiA2MC4xNDggNTMuOC0uMDY1LjMyN2M1LjQyOSA0LjcyIDYuMjMgMTIuOTEgMS43MDEgMTguNTg4YTEzLjUgMTMuNSAwIDAgMS03LjAwMyA0LjYxNGwtLjA2NS4yNjItNzcuMSAyMi4yNTNjLTMuOTI0LTM1Ljg4MiA0LjUzMy03MC43NjMgMjIuMzg0LTk5Ljg0NHptMjcwLjM0LjAzM2M4LjkzNiAxNC40ODYgMTUuNzAzIDMwLjY2NCAxOS43MzIgNDguMjA0IDMuOTggMTcuMzI5IDQuOTggMzQuNjI3IDMuMzM4IDUxLjM0NWwtNzcuNDkyLTIyLjMxOC0uMDY1LS4zMjhjLTYuOTQtMS44OTYtMTEuMjA0LTguOTU1LTkuNTg5LTE2LjAzNWExMy4zOSAxMy4zOSAwIDAgMSA0LjI4Ny03LjE2NmwtLjAzMy0uMTY0IDU5LjgyMS01My41Mzh6TTM3Ny4xMyA1MjMuMDIzaDI0LjY0MmwxNS4zMTUgMTkuMTQ0LTUuNDk4IDIzLjg5LTIyLjEyMiAxMC42MzUtMjIuMTg3LTEwLjY2OS01LjQ5OC0yMy44ODl6bTc4Ljk5OCA2NS41MTVjMS4wNDctLjA1MyAyLjA5LjA0MSAzLjEwOC4yMjlsLjEzMS0uMTY0IDc5Ljc1IDEzLjQ4M2MtMTEuNjcgMzIuNzktMzQuMDA1IDYxLjE5OC02My44NDUgODAuMjA4bC0zMC45NTgtNzQuNzc2LjA5OC0uMTNjLTIuODQ0LTYuNjA4LjAwMi0xNC4zNTcgNi41NDUtMTcuNTA4YTEzLjQ2OCAxMy40NjggMCAwIDEgNS4xNy0xLjM0MnptLTEzMy45NDMuMzI3YzYuMDg2LjA4NiAxMS41NDUgNC4zMSAxMi45NiAxMC41MDUuNjYxIDIuOS4zMzkgNS43NzQtLjc1MyA4LjMxMmwuMjI5LjI5NEwzMDMuOTkgNjgyYy0yOC42MzktMTguMzc3LTUxLjQ0OS00NS44OTItNjMuNjUtNzkuNjUybDc5LjA2My0xMy40MTcuMTMuMTYzYTEzLjY3IDEzLjY3IDAgMCAxIDIuNjUxLS4yMjl6bTY2Ljc5MSAzMi40M2MyLjEyLS4wNzcgNC4yNzIuMzU4IDYuMzE2IDEuMzQyIDIuNjggMS4yOSA0Ljc1MSAzLjMyMyA2LjA1NCA1Ljc2aC4yOTVsMzguOTc1IDcwLjQyM2ExNjEuNTM3IDE2MS41MzcgMCAwIDEtMTUuNTc3IDQuMzUzYy0yOS44MDggNi43NjgtNTkuNTIgNC43MTctODYuNDI2LTQuNDVsMzguODc3LTcwLjI5M2guMDY1YTEzLjUxOSAxMy41MTkgMCAwIDEgMTEuNDIxLTcuMTM0eiIgc3R5bGU9ImNvbG9yOiMwMDA7Zm9udC1zdHlsZTpub3JtYWw7Zm9udC12YXJpYW50Om5vcm1hbDtmb250LXdlaWdodDo0MDA7Zm9udC1zdHJldGNoOm5vcm1hbDtmb250LXNpemU6bWVkaXVtO2xpbmUtaGVpZ2h0Om5vcm1hbDtmb250LWZhbWlseTpTYW5zOy1pbmtzY2FwZS1mb250LXNwZWNpZmljYXRpb246U2Fuczt0ZXh0LWluZGVudDowO3RleHQtYWxpZ246c3RhcnQ7dGV4dC1kZWNvcmF0aW9uOm5vbmU7dGV4dC1kZWNvcmF0aW9uLWxpbmU6bm9uZTtsZXR0ZXItc3BhY2luZzpub3JtYWw7d29yZC1zcGFjaW5nOm5vcm1hbDt0ZXh0LXRyYW5zZm9ybTpub25lO3dyaXRpbmctbW9kZTpsci10YjtkaXJlY3Rpb246bHRyO2Jhc2VsaW5lLXNoaWZ0OmJhc2VsaW5lO3RleHQtYW5jaG9yOnN0YXJ0O2Rpc3BsYXk6aW5saW5lO292ZXJmbG93OnZpc2libGU7dmlzaWJpbGl0eTp2aXNpYmxlO2ZpbGw6I2ZmZjtmaWxsLW9wYWNpdHk6MTtzdHJva2U6bm9uZTtzdHJva2Utd2lkdGg6MDtzdHJva2UtbWl0ZXJsaW1pdDo0O3N0cm9rZS1kYXNoYXJyYXk6bm9uZTtzdHJva2Utb3BhY2l0eToxO21hcmtlcjpub25lO2VuYWJsZS1iYWNrZ3JvdW5kOmFjY3VtdWxhdGUiIHRyYW5zZm9ybT0idHJhbnNsYXRlKC0xLjQgLTEwLjkzKSBzY2FsZSguMDY1MjIpIi8+PC9zdmc+;container=0;labelPosition=center;verticalLabelPosition=bottom;align=center;verticalAlign=top;" vertex="1" parent="qfEtWsAX8eREh4wjfrbH-42">
          <mxGeometry x="36" width="64" height="64" as="geometry" />
        </mxCell>
        <mxCell id="qfEtWsAX8eREh4wjfrbH-14" value="Prometheus" style="shape=image;aspect=fixed;image=data:image/svg+xml,PD94bWwgdmVyc2lvbj0iMS4wIiBlbmNvZGluZz0iVVRGLTgiIHN0YW5kYWxvbmU9Im5vIj8+CjwhLS0gVXBsb2FkZWQgdG86IFNWRyBSZXBvLCB3d3cuc3ZncmVwby5jb20sIEdlbmVyYXRvcjogU1ZHIFJlcG8gTWl4ZXIgVG9vbHMgLS0+Cjxzdmcgd2lkdGg9IjgwMHB4IiBoZWlnaHQ9IjgwMHB4IiB2aWV3Qm94PSItMC41IDAgMjU3IDI1NyIgdmVyc2lvbj0iMS4xIiB4bWxucz0iaHR0cDovL3d3dy53My5vcmcvMjAwMC9zdmciIHhtbG5zOnhsaW5rPSJodHRwOi8vd3d3LnczLm9yZy8xOTk5L3hsaW5rIiBwcmVzZXJ2ZUFzcGVjdFJhdGlvPSJ4TWlkWU1pZCI+CiAgICA8Zz4KICAgICAgICA8cGF0aCBkPSJNMTI4LjAwMTEyOSwwLjY2NyBDNTcuMzExMDM5MiwwLjY2NyAwLDU3Ljk3MTI2MjcgMCwxMjguNjYzNjEyIEMwLDE5OS4zNTM3MDIgNTcuMzExMDM5MiwyNTYuNjYyNDgyIDEyOC4wMDExMjksMjU2LjY2MjQ4MiBDMTk4LjY5MTIyLDI1Ni42NjI0ODIgMjU2LDE5OS4zNTM3MDIgMjU2LDEyOC42NjM2MTIgQzI1Niw1Ny45NzEyNjI3IDE5OC42ODg5NjEsMC42NjcgMTI4LjAwMTEyOSwwLjY2NyBMMTI4LjAwMTEyOSwwLjY2NyBaIE0xMjguMDAxMTI5LDI0MC4yMjcyMzQgQzEwNy44ODg1MDYsMjQwLjIyNzIzNCA5MS41ODIwMTA1LDIyNi43OTE3MTIgOTEuNTgyMDEwNSwyMTAuMjIzMTkzIEwxNjQuNDIwMjQ4LDIxMC4yMjMxOTMgQzE2NC40MjAyNDgsMjI2Ljc4OTQ1MyAxNDguMTEzNzUzLDI0MC4yMjcyMzQgMTI4LjAwMTEyOSwyNDAuMjI3MjM0IEwxMjguMDAxMTI5LDI0MC4yMjcyMzQgWiBNMTg4LjE1Mzc3NywyMDAuMjg2NTk5IEw2Ny44NDE3MDU0LDIwMC4yODY1OTkgTDY3Ljg0MTcwNTQsMTc4LjQ3MDgxNyBMMTg4LjE1NjAzNiwxNzguNDcwODE3IEwxODguMTU2MDM2LDIwMC4yODY1OTkgTDE4OC4xNTM3NzcsMjAwLjI4NjU5OSBaIE0xODcuNzIyMzQsMTY3LjI0MjE3MiBMNjguMTg1MDQ3NiwxNjcuMjQyMTcyIEM2Ny43ODc0OTM1LDE2Ni43ODM2MyA2Ny4zODA5MDQxLDE2Ni4zMzE4NjQgNjYuOTk2OTAyOSwxNjUuODY2NTQ1IEM1NC42ODE3NjA4LDE1MC45MTMwODkgNTEuNzgxNDIyOSwxNDMuMTA2NTcyIDQ4Ljk2NDY2MTcsMTM1LjE1MDk3MiBDNDguOTE3MjI2MiwxMzQuODg4OTQ4IDYzLjg5Nzc4NzksMTM4LjIxMTY4NyA3NC41MjEwNjYyLDE0MC42MDE1MjkgQzc0LjUyMTA2NjIsMTQwLjYwMTUyOSA3OS45ODc0MzUzLDE0MS44NjY0NzQgODcuOTc5MTc2NCwxNDMuMzIzNDIgQzgwLjMwNTkzMDMsMTM0LjMyODc1OCA3NS43NDk4Njk5LDEyMi44OTQ1NTkgNzUuNzQ5ODY5OSwxMTEuMjA3MzcyIEM3NS43NDk4Njk5LDg1LjU0OTMyMDIgOTUuNDI4Nzk4Myw2My4xMjgxNzE5IDg4LjMyOTI5NTEsNDUuMDA1NTc3NSBDOTUuMjM5MDU2Niw0NS41NjgwMjYyIDEwMi42Mjk5NDksNTkuNTg4NTg1MSAxMDMuMTI5MTUsODEuNTEwNTMxOSBDMTEwLjQ3NDg2Niw3MS4zNTkzNDkxIDExMy41NDkxMzQsNTIuODIxMTI5OSAxMTMuNTQ5MTM0LDQxLjQ1NDY5NjQgQzExMy41NDkxMzQsMjkuNjg2MTkxMiAxMjEuMzAzNjk4LDE2LjAxNTc1MSAxMjkuMDYwNTIxLDE1LjU0ODE3MzIgQzEyMi4xNDYyNDIsMjYuOTQzOTcxNCAxMzAuODUxNzczLDM2LjcxMzQxMTkgMTM4LjU5MDUyNSw2MC45NDg0MDA4IEMxNDEuNDkzMTIyLDcwLjA1MTQ4NjQgMTQxLjEyMjY3NCw4NS4zNzA4NzI3IDE0My4zNjM0MzMsOTUuMDg2MTAxMiBDMTQ0LjEwNjU4OSw3NC45MDc5NzEzIDE0Ny41NzYxNTIsNDUuNDY2Mzc4OCAxNjAuMzc2OTQyLDM1LjMwMTY0MyBDMTU0LjcyOTg2Nyw0OC4xMDI0MzM2IDE2MS4yMTI3MDksNjQuMTE5Nzk4NCAxNjUuNjQ2NzkzLDcxLjgyMDE1MDUgQzE3Mi44MDA1MDgsODQuMjQzNzE2NCAxNzcuMTM3NDYyLDkzLjY1NjI2MTcgMTc3LjEzNzQ2MiwxMTEuNDU4MTAyIEMxNzcuMTM3NDYyLDEyMy4zOTM3NjEgMTcyLjczMDQ4NSwxMzQuNjMxNDQxIDE2NS4yOTY2NzQsMTQzLjQxNjAzMiBDMTczLjc0OTIxNywxNDEuODMwMzMzIDE3OS41ODYwMzQsMTQwLjQwMDQ5MyAxNzkuNTg2MDM0LDE0MC40MDA0OTMgTDIwNy4wMzUzMzgsMTM1LjA0NDgwNyBDMjA3LjAzNzU5NywxMzUuMDQyNTQ4IDIwMy4wNDg1MDMsMTUxLjQ0NjE3MyAxODcuNzIyMzQsMTY3LjI0MjE3MiBMMTg3LjcyMjM0LDE2Ny4yNDIxNzIgWiIgZmlsbD0iI0RBNEUzMSI+Cg08L3BhdGg+CiAgICA8L2c+Cjwvc3ZnPg==;labelPosition=center;verticalLabelPosition=bottom;align=center;verticalAlign=top;" vertex="1" parent="qfEtWsAX8eREh4wjfrbH-42">
          <mxGeometry x="100" y="160" width="64" height="64" as="geometry" />
        </mxCell>
        <mxCell id="qfEtWsAX8eREh4wjfrbH-15" value="Grafana" style="shape=image;aspect=fixed;image=data:image/svg+xml,PD94bWwgdmVyc2lvbj0iMS4wIiBlbmNvZGluZz0idXRmLTgiPz48IS0tIFVwbG9hZGVkIHRvOiBTVkcgUmVwbywgd3d3LnN2Z3JlcG8uY29tLCBHZW5lcmF0b3I6IFNWRyBSZXBvIE1peGVyIFRvb2xzIC0tPgo8c3ZnIHdpZHRoPSI4MDBweCIgaGVpZ2h0PSI4MDBweCIgdmlld0JveD0iMCAwIDE2IDE2IiB4bWxucz0iaHR0cDovL3d3dy53My5vcmcvMjAwMC9zdmciIGZpbGw9Im5vbmUiPjxwYXRoIGZpbGw9InVybCgjZ3JhZmFuYS1jb2xvci0xNl9fcGFpbnQwX2xpbmVhcl8yMzcyXzM2NCkiIGQ9Ik0xMy45ODUgNy4xNzVhNC40MDggNC40MDggMCAwMC0uMTM4LS44MDIgNS4wMzUgNS4wMzUgMCAwMC0xLjA1NC0xLjk5OCAyLjk2IDIuOTYgMCAwMC0uMzY2LS4zOTNjLjE5OC0uNzg3LS4yNDUtMS40NjgtLjI0NS0xLjQ2OC0uNzY0LS4wNDYtMS4yMzcuMjI3LTEuNDIuMzYzLS4wMzEtLjAxNS0uMDYyLS4wMy0uMDkyLS4wMy0uMTIyLS4wNDYtLjI2LS4xMDYtLjM5Ny0uMTM3LS4xMzgtLjA0NS0uMjc1LS4wNzUtLjQxMy0uMTItLjEzNy0uMDMxLS4yOS0uMDYxLS40NDMtLjA5Mi0uMDMgMC0uMDQ2IDAtLjA3Ni0uMDE1QzkuMDA1IDEuNDQgOC4wNTggMSA4LjA1OCAxIDcuMDA0IDEuNjY2IDYuNzkgMi42MDQgNi43OSAyLjYwNHMwIC4wMTUtLjAxNi4wNmwtLjE4My4wNDZjLS4wNzYuMDMtLjE2OC4wNi0uMjQ0LjA3Ni0uMDc3LjAzLS4xNjguMDYtLjI0NS4wOS0uMTUzLjA3Ni0uMzIuMTUyLS40NzMuMjI4LS4xNTMuMDktLjMwNi4xODEtLjQ0My4yNzItLjAxNi0uMDE1LS4wMy0uMDE1LS4wMy0uMDE1LTEuNDY3LS41NDUtMi43NjYuMTM2LTIuNzY2LjEzNi0uMTIyIDEuNTQ0LjU4IDIuNTI4LjczMyAyLjcxLS4wMy4wOS0uMDYuMTk2LS4wOTEuMjg3YTguMTA0IDguMTA0IDAgMDAtLjI0NSAxLjA5YzAgLjA2LS4wMTUuMTA2LS4wMTUuMTY2QzEuMzk3IDguMzg2IDEgOS43NDggMSA5Ljc0OGMxLjEzIDEuMjg3IDIuNDYgMS4zNzcgMi40NiAxLjM3Ny4xNjcuMzAzLjM2Ni41NzUuNTguODQ4LjA5Mi4xMDYuMTgzLjIxMi4yOS4zMThhMy4wMTQgMy4wMTQgMCAwMC4wNjEgMi4xNDljMS4yNjguMDQ1IDIuMDkzLS41NDUgMi4yNjEtLjY4MS4xMjIuMDQ1LjI2LjA3Ni4zODIuMTA2LjM4Mi4xMDYuNzguMTUxIDEuMTc2LjE4MWguNDljLjU5NS44NDggMS42MzQuOTU0IDEuNjM0Ljk1NC43NDgtLjc3Mi43NzktMS41NDQuNzc5LTEuNzF2LS4wMTUtLjAzLS4wM2MuMTUzLS4xMDcuMzA1LS4yMjguNDQzLS4zNWE1LjM3IDUuMzcgMCAwMC43NzktLjg5MmMuMDE1LS4wMy4wNDYtLjA2LjA2MS0uMDkuODQuMDQ1IDEuNDM2LS41MTUgMS40MzYtLjUxNS0uMTM4LS44NjMtLjY0Mi0xLjI4Ny0uNzQ5LTEuMzc4bC0uMDE1LS4wMTVoLS4wMTVzLS4wMTUgMC0uMDE1LS4wMTVjMC0uMDQ1LjAxNS0uMTA2LjAxNS0uMTUxIDAtLjA5MS4wMTUtLjE4Mi4wMTUtLjI4OFY5LjR2LS4xNjYtLjA3Ni0uMTUybC0uMDE1LS4wNzVjLS4wMTUtLjA5MS0uMDMtLjE5Ny0uMDYxLS4yODhhMy41MDYgMy41MDYgMCAwMC0uNDI4LTEuMDQ0IDMuODU2IDMuODU2IDAgMDAtLjcxOC0uODQ4IDMuNzg0IDMuNzg0IDAgMDAtLjkwMS0uNTc1IDMuMzQ3IDMuMzQ3IDAgMDAtLjk5My0uMjcyYy0uMTY4LS4wMTUtLjMzNi0uMDMtLjUwNC0uMDNIOS4zNyA5LjIwNGMtLjA5Mi4wMTUtLjE2OS4wMTUtLjI2LjAzLS4zMzYuMDYtLjY0Mi4xODEtLjkzMi4zNDgtLjI3NS4xNjYtLjUyLjM2My0uNzE4LjYwNWEyLjU3OSAyLjU3OSAwIDAwLS40NTkuNzU3IDIuNjMgMi42MyAwIDAwLS4xODMuODE3di4zOTNjLjAxNS4xMzcuMDQ2LjI3My4wNzcuMzk0LjA3Ni4yNTguMTgzLjQ4NS4zMzYuNjY2LjEzNy4xOTcuMzIuMzQ4LjUwNC40ODUuMTgzLjEyLjM4Mi4yMTIuNTguMjcyLjE5OS4wNi4zODIuMDc2LjU2NS4wNzZoLjI0NGMuMDMxIDAgLjA0NyAwIC4wNjItLjAxNS4wMTUgMCAuMDQ2LS4wMTUuMDYxLS4wMTUuMDQ2LS4wMTYuMDc2LS4wMTYuMTIyLS4wM2wuMjMtLjA5MmEuODY5Ljg2OSAwIDAwLjE5OC0uMTJjLjAxNS0uMDE2LjAzLS4wMy4wNDYtLjAzYS4xMjkuMTI5IDAgMDAuMDE1LS4xOThjLS4wNDYtLjA2LS4xMjItLjA3NS0uMTgzLS4wMy0uMDE1LjAxNS0uMDMuMDE1LS4wNDYuMDMtLjA0Ni4wMy0uMTA3LjA0Ni0uMTY4LjA2bC0uMTgzLjA0NmMtLjAzIDAtLjA2MS4wMTUtLjA5Mi4wMTVIOC43M2ExLjUxOSAxLjUxOSAwIDAxLS44MjUtLjM3OCAxLjQ1MiAxLjQ1MiAwIDAxLS4zMDYtLjM3OCAxLjY1NSAxLjY1NSAwIDAxLS4xNjgtLjQ4NWMtLjAxNS0uMDktLjAxNS0uMTY2LS4wMTUtLjI1N3YtLjEwNi0uMDNjMC0uMDQ2LjAxNS0uMDkxLjAxNS0uMTM2LjA2MS0uMzY0LjI2LS43MjcuNTUtMSAuMDc3LS4wNzUuMTUzLS4xMzYuMjMtLjE4MS4wNzYtLjA2LjE2Ny0uMTA2LjI1OS0uMTUxLjA5Mi0uMDQ2LjE4My0uMDc2LjI5LS4xMDZhLjk5My45OTMgMCAwMS4zMDYtLjA0NmguMzIxYy4xMDcuMDE1LjIyOS4wMy4zMzYuMDQ2LjIxNC4wNDUuNDI3LjEyLjYyNi4yNDIuMzk3LjIxMi43MzMuNTYuOTQ3Ljk2OS4xMDcuMjExLjE4My40MjMuMjE0LjY1LjAxNS4wNi4wMTUuMTIxLjAxNS4xNjd2LjM2M2MwIC4wNi0uMDE1LjEyMS0uMDE1LjE4MiAwIC4wNi0uMDE1LjEyLS4wMy4xODFsLS4wNDYuMTgyYy0uMDMuMTIxLS4wNzcuMjQyLS4xMjMuMzYzYTMuMTgzIDMuMTgzIDAgMDEtLjM2Ni42NjYgMy4wMDIgMy4wMDIgMCAwMS0xLjkxIDEuMThjLS4xMjIuMDE2LS4yNi4wMy0uMzgyLjA0NmgtLjE5OGMtLjA2MSAwLS4xMzggMC0uMTk5LS4wMTVhMy42MzcgMy42MzcgMCAwMS0uODEtLjE1MSA0LjA2OCA0LjA2OCAwIDAxLS43NDgtLjMwMyA0LjA5OCA0LjA5OCAwIDAxLTEuNjk2LTEuNjk1IDQuMzk4IDQuMzk4IDAgMDEtLjI5LS43NDJjLS4wNzYtLjI1Ny0uMTA3LS41MTQtLjEzNy0uNzcydi0uMzAyLS4wOTFjMC0uMTM2LjAxNS0uMjU4LjAzLS4zOTRzLjA0Ni0uMjcyLjA2MS0uMzkzYy4wMy0uMTM3LjA2MS0uMjU4LjA5Mi0uMzk0YTUuMzMgNS4zMyAwIDAxLjI3NS0uNzQxYy4yMTQtLjQ3LjUwNC0uODkzLjg1NS0xLjIyNi4wOTItLjA5MS4xODQtLjE2Ny4yNzUtLjI0My4wOTItLjA3NS4xODQtLjEzNi4yOS0uMjExYTUuMzkgNS4zOSAwIDAxLjMwNi0uMTgyYy4wNDYtLjAzLjEwNy0uMDQ1LjE1My0uMDc2YS4yNi4yNiAwIDAxLjA3Ni0uMDMuMjYuMjYgMCAwMS4wNzctLjAzYy4xMDctLjA0Ni4yMjktLjA5MS4zMzYtLjEyMS4wMy0uMDE1LjA2LS4wMTUuMDkxLS4wMy4wMy0uMDE2LjA2MS0uMDE2LjA5Mi0uMDMuMDYxLS4wMTYuMTIyLS4wMzEuMTY4LS4wNDYuMDMtLjAxNS4wNjEtLjAxNS4wOTItLjAxNS4wMyAwIC4wNi0uMDE2LjA5MS0uMDE2LjAzIDAgLjA2MS0uMDE1LjA5Mi0uMDE1bC4wNDYtLjAxNWguMDQ2Yy4wMyAwIC4wNi0uMDE1LjA5MS0uMDE1LjAzIDAgLjA2MS0uMDE1LjEwNy0uMDE1LjAzIDAgLjA3Ny0uMDE1LjEwNy0uMDE1aC43NjRjLjIzLjAxNS40NDMuMDMuNjU3LjA3NS40MjguMDc2Ljg0LjIxMiAxLjIwNy4zOTQuMzY2LjE4Mi43MDIuMzkzLjk3Ny42MzZsLjA0Ni4wNDUuMDQ2LjA0NWMuMDMuMDMuMDYxLjA2MS4xMDcuMDkxbC4wOTIuMDkxLjA5MS4wOWMuMTIzLjEyMi4yMy4yNTguMzM2LjM5NC4xOTkuMjU4LjM2Ny41MTUuNDkuNzcyLjAxNC4wMTUuMDE0LjAzLjAzLjA0Ni4wMTUuMDE1LjAxNS4wMy4wMTUuMDQ1bC4wNDYuMDkuMDQ2LjA5Mi4wNDUuMDljLjA0Ni4xMjIuMDkyLjIyOC4xMjMuMzMzLjA2LjE2Ny4xMDcuMzE4LjEzNy40NTUuMDE1LjA0NS4wNjEuMDkuMTIyLjA3NWEuMTA0LjEwNCAwIDAwLjEwNy0uMTA2Yy4wOTItLjIyNy4wOTItLjM5My4wNzctLjU3NXoiLz48ZGVmcz48bGluZWFyR3JhZGllbnQgaWQ9ImdyYWZhbmEtY29sb3ItMTZfX3BhaW50MF9saW5lYXJfMjM3Ml8zNjQiIHgxPSI3LjUwMiIgeDI9IjcuNTAyIiB5MT0iMTguMTQyIiB5Mj0iNS4zNTYiIGdyYWRpZW50VW5pdHM9InVzZXJTcGFjZU9uVXNlIj48c3RvcCBzdG9wLWNvbG9yPSIjRkZGMjAwIi8+PHN0b3Agb2Zmc2V0PSIxIiBzdG9wLWNvbG9yPSIjRjE1QTI5Ii8+PC9saW5lYXJHcmFkaWVudD48L2RlZnM+PC9zdmc+;labelPosition=center;verticalLabelPosition=bottom;align=center;verticalAlign=top;" vertex="1" parent="qfEtWsAX8eREh4wjfrbH-42">
          <mxGeometry y="160" width="64" height="64" as="geometry" />
        </mxCell>
      </root>
    </mxGraphModel>
  </diagram>
</mxfile>
